<svg id="Ebene_1" data-name="Ebene 1" xmlns="http://www.w3.org/2000/svg" viewBox="0 0 232.98 132.82"><defs><style>.cls-1{fill:#cc0000;}.cls-2{fill:#666;}.cls-3{fill:#919191;}</style></defs><title>Freunde_der_HM_EV_Nachbau_RGB</title><path class="cls-1" d="M581.78,597.34l1.9,1v1.05H576l-.07-1,2.67-1.18-2-18.24-.33-.05-7.84,20.43h-1.54l-7.93-19-.34,0-1.23,17,2.5,1v1h-6.88v-.94l1.94-1,2.53-20.3-50.58,21.5v-3.26l49.5-21.06L513.07,470.45l-109.3,46.43,9.72,22.95h-3.25L399.83,515.3l114.8-48.72,53.79,128.11,7.6-19.59h5.87c.08.85.08.85-2.59,2Z" transform="translate(-350.7 -466.57)"/><path class="cls-2" d="M389.2,551.38q-.25-.6-.46-1.18a6.56,6.56,0,0,1-.3-1.18h-4.53v6.28h3.66a7.42,7.42,0,0,1,.33-.86q.19-.42.38-.75h.58v4.13h-.58c-.14-.24-.27-.5-.4-.77a4.58,4.58,0,0,1-.31-.84h-3.66v6.23q.46.11.92.26a7.94,7.94,0,0,1,.94.37v.54H380.3v-.54a8.64,8.64,0,0,1,1.75-.63V549.27a7.19,7.19,0,0,1-.9-.28q-.44-.17-.85-.37v-.52h9.57v3.29Z" transform="translate(-350.7 -466.57)"/><path class="cls-2" d="M406.39,563.77a6.25,6.25,0,0,1-1,.08,1.26,1.26,0,0,1-1-.54,5.31,5.31,0,0,1-.81-1.44q-.36-.9-.7-1.9a19.28,19.28,0,0,0-.76-1.89,4.88,4.88,0,0,0-1-1.44,1.73,1.73,0,0,0-1.23-.55h-1.08v6.35a6.16,6.16,0,0,1,.87.28l.81.35v.54h-5.29v-.54a8.64,8.64,0,0,1,1.75-.63V549.27a7.19,7.19,0,0,1-.9-.28q-.44-.17-.85-.37v-.52h1.59l1.5,0q1,0,2.69,0a5.69,5.69,0,0,1,3.59,1,3.39,3.39,0,0,1,1.22,2.83,3.48,3.48,0,0,1-1,2.6,5.44,5.44,0,0,1-2.66,1.36,1.92,1.92,0,0,1,1.15.71,6,6,0,0,1,.82,1.43q.36.85.66,1.8a16,16,0,0,0,.63,1.69,3.6,3.6,0,0,0,.77,1.16,1.13,1.13,0,0,0,1.08.28l.14.69A8,8,0,0,1,406.39,563.77Zm-2.45-11.67q0-3.17-3.68-3.17a5.65,5.65,0,0,0-.74,0l-.6.09v6.12h1.45a5.11,5.11,0,0,0,1.62-.23,2.89,2.89,0,0,0,1.1-.64,2.55,2.55,0,0,0,.63-1A3.58,3.58,0,0,0,403.94,552.09Z" transform="translate(-350.7 -466.57)"/><path class="cls-2" d="M412.2,563.62v-.54a8.64,8.64,0,0,1,1.75-.63V549.27a8.45,8.45,0,0,1-.89-.28q-.45-.17-.86-.37v-.52h9.68v3.29h-.67a10.42,10.42,0,0,1-.44-1.16,8.8,8.8,0,0,1-.3-1.21h-4.67v6.12h3.73a7.69,7.69,0,0,1,.3-.82,6.13,6.13,0,0,1,.39-.78h.58v4.11h-.58a7.14,7.14,0,0,1-.39-.76,6,6,0,0,1-.3-.83h-3.73v6.6h4.69a11.79,11.79,0,0,1,.32-1.23q.21-.65.44-1.23H422v3.43Z" transform="translate(-350.7 -466.57)"/><path class="cls-2" d="M442.11,549a5,5,0,0,1-.77.29l0,8.11a8.49,8.49,0,0,1-.39,2.66,5.29,5.29,0,0,1-1.16,2,5.17,5.17,0,0,1-1.93,1.27,7.53,7.53,0,0,1-2.73.45,7.07,7.07,0,0,1-2.67-.45,4.59,4.59,0,0,1-1.78-1.23,4.79,4.79,0,0,1-1-1.77,7.2,7.2,0,0,1-.3-2.1v-9a3.67,3.67,0,0,1-.74-.27,5.38,5.38,0,0,1-.67-.38v-.52h5v.52a8.18,8.18,0,0,1-.83.37,6.82,6.82,0,0,1-.92.28v8.5a7.79,7.79,0,0,0,.21,1.83,4,4,0,0,0,.74,1.54,3.48,3.48,0,0,0,1.44,1.06,5.91,5.91,0,0,0,2.27.38,3.87,3.87,0,0,0,3.14-1.23,5.3,5.3,0,0,0,1-3.61l-.12-8.41a5.69,5.69,0,0,1-.9-.32c-.31-.14-.58-.27-.83-.41v-.52h4.67v.52A4.63,4.63,0,0,1,442.11,549Z" transform="translate(-350.7 -466.57)"/><path class="cls-2" d="M463,548.63a8.53,8.53,0,0,1-.72.46,5,5,0,0,1-.75.34v14.35h-1.1L451.07,550l.46,12.33a7.36,7.36,0,0,1,.9.34,8.36,8.36,0,0,1,.83.43v.56h-4.92v-.56q.39-.23.83-.44a5.25,5.25,0,0,1,.85-.33l.14-12.95a6.66,6.66,0,0,1-1.82-.7v-.54h3.82l8.42,12.4-.32-11.06a5.39,5.39,0,0,1-.87-.34,8,8,0,0,1-.83-.46v-.54H463Z" transform="translate(-350.7 -466.57)"/><path class="cls-2" d="M483.61,555.64a8.34,8.34,0,0,1-.69,3.51,7,7,0,0,1-1.91,2.52,8.2,8.2,0,0,1-2.86,1.52,12,12,0,0,1-3.55.51q-1.17,0-2.17,0l-1.71,0h-1.79v-.54a8.64,8.64,0,0,1,1.75-.63V549.27a7.19,7.19,0,0,1-.9-.28q-.44-.17-.85-.37v-.52h2.81l1.4,0,1.31,0h1.13q4,0,6,1.88T483.61,555.64Zm-2,.36a10,10,0,0,0-.4-2.94,5.69,5.69,0,0,0-1.25-2.23,5.59,5.59,0,0,0-2.14-1.41,8.54,8.54,0,0,0-3.06-.49q-.67,0-1.21,0l-1,.08v13.25a7.72,7.72,0,0,0,1.36.25,19.23,19.23,0,0,0,2,.09,5.76,5.76,0,0,0,2.16-.41,5.06,5.06,0,0,0,1.82-1.24,6,6,0,0,0,1.24-2.07A8.38,8.38,0,0,0,481.61,556Z" transform="translate(-350.7 -466.57)"/><path class="cls-2" d="M488.95,563.62v-.54a8.65,8.65,0,0,1,1.75-.63V549.27a8.48,8.48,0,0,1-.88-.28q-.45-.17-.86-.37v-.52h9.68v3.29H498a10.51,10.51,0,0,1-.44-1.16,9,9,0,0,1-.3-1.21h-4.67v6.12h3.73a7.8,7.8,0,0,1,.3-.82,6.06,6.06,0,0,1,.39-.78h.58v4.11H497a7,7,0,0,1-.39-.76,6,6,0,0,1-.3-.83h-3.73v6.6h4.69a11.78,11.78,0,0,1,.32-1.23q.21-.65.44-1.23h.69v3.43Z" transform="translate(-350.7 -466.57)"/><path class="cls-3" d="M360.28,575.66a5.44,5.44,0,0,1-.45,2.29,4.57,4.57,0,0,1-1.24,1.64,5.34,5.34,0,0,1-1.87,1,7.86,7.86,0,0,1-2.32.33l-1.42,0-1.12,0H350.7v-.35a5.69,5.69,0,0,1,1.14-.41v-8.59a4.76,4.76,0,0,1-.59-.18q-.28-.11-.55-.24v-.34h1.83l.92,0,.85,0H355a5.61,5.61,0,0,1,3.92,1.22A4.87,4.87,0,0,1,360.28,575.66Zm-1.31.23a6.52,6.52,0,0,0-.26-1.92,3.71,3.71,0,0,0-.82-1.45,3.65,3.65,0,0,0-1.4-.92,5.59,5.59,0,0,0-2-.32l-.79,0-.67.05V580a5,5,0,0,0,.88.17,12.42,12.42,0,0,0,1.33.06,3.77,3.77,0,0,0,1.41-.27,3.3,3.3,0,0,0,1.19-.81,3.92,3.92,0,0,0,.81-1.35A5.47,5.47,0,0,0,359,575.9Z" transform="translate(-350.7 -466.57)"/><path class="cls-3" d="M363.37,580.87v-.35a5.69,5.69,0,0,1,1.14-.41v-8.59a5.59,5.59,0,0,1-.58-.18,6.1,6.1,0,0,1-.56-.24v-.34h6.31v2.14h-.44a6.83,6.83,0,0,1-.29-.76,5.84,5.84,0,0,1-.19-.79h-3v4h2.43a5.18,5.18,0,0,1,.2-.54,4.08,4.08,0,0,1,.25-.51H369V577h-.37a4.5,4.5,0,0,1-.25-.5,3.88,3.88,0,0,1-.2-.54h-2.43v4.31h3.06a7.56,7.56,0,0,1,.21-.8q.13-.43.28-.8h.45v2.24Z" transform="translate(-350.7 -466.57)"/><path class="cls-3" d="M380.48,581a4.17,4.17,0,0,1-.62.05.82.82,0,0,1-.62-.35,3.44,3.44,0,0,1-.52-.94q-.23-.58-.46-1.24a12.79,12.79,0,0,0-.5-1.23,3.18,3.18,0,0,0-.64-.94,1.13,1.13,0,0,0-.8-.36h-.71v4.14a4.07,4.07,0,0,1,.57.18l.52.23v.35h-3.45v-.35a5.69,5.69,0,0,1,1.14-.41v-8.59a4.76,4.76,0,0,1-.59-.18q-.28-.11-.55-.24v-.34h1l1,0q.68,0,1.76,0a3.71,3.71,0,0,1,2.34.63,2.21,2.21,0,0,1,.79,1.84,2.27,2.27,0,0,1-.64,1.69,3.55,3.55,0,0,1-1.73.88,1.25,1.25,0,0,1,.75.47,3.89,3.89,0,0,1,.53.93q.23.56.43,1.17a10.52,10.52,0,0,0,.41,1.1,2.36,2.36,0,0,0,.5.76.74.74,0,0,0,.71.18l.09.45A5.22,5.22,0,0,1,380.48,581Zm-1.6-7.61q0-2.07-2.4-2.07a3.72,3.72,0,0,0-.48,0l-.39.06v4h.94a3.32,3.32,0,0,0,1.06-.15,1.89,1.89,0,0,0,.72-.42,1.67,1.67,0,0,0,.41-.64A2.34,2.34,0,0,0,378.88,573.35Z" transform="translate(-350.7 -466.57)"/><path class="cls-3" d="M393.82,580.87v-.35a5,5,0,0,1,1.11-.41v-4.17h-5.61v4.17a5,5,0,0,1,1.11.41v.35H387v-.35a5.69,5.69,0,0,1,1.14-.41v-8.59a4.76,4.76,0,0,1-.59-.18q-.28-.11-.55-.24v-.34h3.46v.34a5.63,5.63,0,0,1-.53.24,4.45,4.45,0,0,1-.58.18v3.78h5.61v-3.78a4.4,4.4,0,0,1-.58-.18,5.57,5.57,0,0,1-.53-.24v-.34h3.46v.34c-.18.09-.37.17-.55.24a4.79,4.79,0,0,1-.59.18v8.59a5.7,5.7,0,0,1,1.14.41v.35Z" transform="translate(-350.7 -466.57)"/><path class="cls-3" d="M410,575.66a5.67,5.67,0,0,1-.43,2.26,5.12,5.12,0,0,1-1.13,1.67,4.86,4.86,0,0,1-1.62,1,5.07,5.07,0,0,1-1.87.36,5.25,5.25,0,0,1-2-.34,3.88,3.88,0,0,1-1.45-1,4.42,4.42,0,0,1-.91-1.59,6.64,6.64,0,0,1-.31-2.12,5.75,5.75,0,0,1,.42-2.24A5,5,0,0,1,403.5,571a5.07,5.07,0,0,1,1.86-.35,5.26,5.26,0,0,1,1.93.34,3.92,3.92,0,0,1,1.46,1,4.38,4.38,0,0,1,.92,1.59A6.63,6.63,0,0,1,410,575.66Zm-1.31.25a6,6,0,0,0-.26-1.83,4.28,4.28,0,0,0-.75-1.43,3.38,3.38,0,0,0-1.22-.94,3.86,3.86,0,0,0-1.63-.34,2.78,2.78,0,0,0-2.34,1.15,5.2,5.2,0,0,0-.87,3.2,6.08,6.08,0,0,0,.26,1.82,4.19,4.19,0,0,0,.76,1.45,3.39,3.39,0,0,0,1.21.93,3.87,3.87,0,0,0,1.63.33,2.79,2.79,0,0,0,2.35-1.13A5.2,5.2,0,0,0,408.69,575.91Z" transform="translate(-350.7 -466.57)"/><path class="cls-3" d="M420,573.23q-.15-.36-.28-.74a5.47,5.47,0,0,1-.19-.7,4.26,4.26,0,0,0-.92-.3,5.88,5.88,0,0,0-1.19-.11,2.59,2.59,0,0,0-2.26,1.15,5.57,5.57,0,0,0-.8,3.22,4.7,4.7,0,0,0,1,3.2,3.54,3.54,0,0,0,2.81,1.1,5.69,5.69,0,0,0,1.28-.14,5.21,5.21,0,0,0,1.12-.38l.17.54a5.43,5.43,0,0,1-1.41.66,5.87,5.87,0,0,1-1.77.25,4.28,4.28,0,0,1-3.32-1.28,5.25,5.25,0,0,1-1.18-3.68,6.21,6.21,0,0,1,.4-2.32,5,5,0,0,1,1.09-1.69,4.57,4.57,0,0,1,1.58-1,5.13,5.13,0,0,1,1.89-.35,10.81,10.81,0,0,1,1.27.08,6.76,6.76,0,0,1,1.17.24v2.29Z" transform="translate(-350.7 -466.57)"/><path class="cls-3" d="M430.69,580.87v-.35a5,5,0,0,1,1.11-.41v-4.17h-5.61v4.17a5,5,0,0,1,1.11.41v.35h-3.46v-.35a5.69,5.69,0,0,1,1.14-.41v-8.59a4.76,4.76,0,0,1-.59-.18q-.28-.11-.55-.24v-.34h3.46v.34a5.63,5.63,0,0,1-.53.24,4.45,4.45,0,0,1-.58.18v3.78h5.61v-3.78a4.4,4.4,0,0,1-.58-.18,5.57,5.57,0,0,1-.53-.24v-.34h3.46v.34c-.18.09-.37.17-.55.24a4.79,4.79,0,0,1-.59.18v8.59a5.7,5.7,0,0,1,1.14.41v.35Z" transform="translate(-350.7 -466.57)"/><path class="cls-3" d="M443.32,578a2.49,2.49,0,0,1-.3,1.2,3.14,3.14,0,0,1-.8,1,3.86,3.86,0,0,1-1.18.64,4.34,4.34,0,0,1-1.43.23,8.26,8.26,0,0,1-1.09-.08,5.69,5.69,0,0,1-1.06-.24v-2.52h.45c.11.27.21.55.31.83a6.83,6.83,0,0,1,.22.8,4,4,0,0,0,.7.23,3.66,3.66,0,0,0,.88.1,3.62,3.62,0,0,0,.79-.08,1.8,1.8,0,0,0,.65-.28,1.36,1.36,0,0,0,.44-.53,2,2,0,0,0,.17-.86,1.6,1.6,0,0,0-.32-1,2.62,2.62,0,0,0-.87-.7q-.55-.28-1.16-.54a8,8,0,0,1-1.15-.58,2.71,2.71,0,0,1-.86-.84,2.24,2.24,0,0,1-.33-1.25,2.47,2.47,0,0,1,.24-1.07,2.75,2.75,0,0,1,.7-.91,3.48,3.48,0,0,1,1.09-.63,4.09,4.09,0,0,1,1.42-.23,7.25,7.25,0,0,1,1.84.22v2.28h-.42a5.37,5.37,0,0,1-.34-.8,4.59,4.59,0,0,1-.19-.73,2.8,2.8,0,0,0-.56-.12,6.34,6.34,0,0,0-.79,0q-1.78,0-1.78,1.65a1.45,1.45,0,0,0,.34,1,2.65,2.65,0,0,0,.88.66q.54.26,1.15.52a8.94,8.94,0,0,1,1.16.59,2.64,2.64,0,0,1,.88.87A2.39,2.39,0,0,1,443.32,578Z" transform="translate(-350.7 -466.57)"/><path class="cls-3" d="M453.54,573.23q-.15-.36-.28-.74a5.47,5.47,0,0,1-.19-.7,4.26,4.26,0,0,0-.92-.3,5.88,5.88,0,0,0-1.19-.11,2.59,2.59,0,0,0-2.26,1.15,5.57,5.57,0,0,0-.8,3.22,4.7,4.7,0,0,0,1,3.2,3.54,3.54,0,0,0,2.81,1.1,5.69,5.69,0,0,0,1.28-.14,5.21,5.21,0,0,0,1.12-.38l.17.54a5.43,5.43,0,0,1-1.41.66,5.87,5.87,0,0,1-1.77.25,4.28,4.28,0,0,1-3.32-1.28,5.25,5.25,0,0,1-1.18-3.68,6.21,6.21,0,0,1,.4-2.32,5,5,0,0,1,1.09-1.69,4.57,4.57,0,0,1,1.58-1,5.13,5.13,0,0,1,1.89-.35,10.81,10.81,0,0,1,1.27.08,6.76,6.76,0,0,1,1.17.24v2.29Z" transform="translate(-350.7 -466.57)"/><path class="cls-3" d="M464.2,580.87v-.35a5,5,0,0,1,1.11-.41v-4.17H459.7v4.17a5,5,0,0,1,1.11.41v.35h-3.46v-.35a5.69,5.69,0,0,1,1.14-.41v-8.59a4.76,4.76,0,0,1-.59-.18q-.28-.11-.55-.24v-.34h3.46v.34a5.63,5.63,0,0,1-.53.24,4.45,4.45,0,0,1-.58.18v3.78h5.61v-3.78a4.4,4.4,0,0,1-.58-.18,5.57,5.57,0,0,1-.53-.24v-.34h3.46v.34c-.18.09-.37.17-.55.24a4.79,4.79,0,0,1-.59.18v8.59a5.7,5.7,0,0,1,1.14.41v.35Z" transform="translate(-350.7 -466.57)"/><path class="cls-3" d="M479.87,571.36a3.21,3.21,0,0,1-.5.19l0,5.29a5.53,5.53,0,0,1-.25,1.74,3.45,3.45,0,0,1-.76,1.31,3.38,3.38,0,0,1-1.26.83,4.92,4.92,0,0,1-1.78.29,4.62,4.62,0,0,1-1.74-.29,3,3,0,0,1-1.16-.8,3.12,3.12,0,0,1-.64-1.16,4.71,4.71,0,0,1-.19-1.37v-5.87a2.32,2.32,0,0,1-.48-.18,3.44,3.44,0,0,1-.44-.25v-.34h3.27v.34a5.25,5.25,0,0,1-.54.24,4.5,4.5,0,0,1-.6.18v5.54a5.09,5.09,0,0,0,.14,1.19,2.61,2.61,0,0,0,.48,1,2.27,2.27,0,0,0,.94.69,3.87,3.87,0,0,0,1.48.25,2.52,2.52,0,0,0,2-.8,3.45,3.45,0,0,0,.65-2.35l-.08-5.48a3.74,3.74,0,0,1-.58-.21c-.2-.09-.38-.18-.54-.26v-.34h3v.34A3.06,3.06,0,0,1,479.87,571.36Z" transform="translate(-350.7 -466.57)"/><path class="cls-3" d="M483.46,580.87v-.35a5.68,5.68,0,0,1,1.14-.41v-8.59a5.54,5.54,0,0,1-.58-.18,6.1,6.1,0,0,1-.56-.24v-.34H487v.34l-.56.24a4.36,4.36,0,0,1-.58.18v8.73l3.21-.14c0-.23.13-.5.23-.81s.2-.59.3-.84H490v2.42Z" transform="translate(-350.7 -466.57)"/><path class="cls-3" d="M492.79,580.87v-.35a5.71,5.71,0,0,1,1.14-.41v-8.59a5.63,5.63,0,0,1-.58-.18,6.1,6.1,0,0,1-.56-.24v-.34h6.32v2.14h-.44a7,7,0,0,1-.29-.76,5.83,5.83,0,0,1-.19-.79h-3v4h2.43a5.07,5.07,0,0,1,.2-.54,4.08,4.08,0,0,1,.25-.51h.38V577H498a4.5,4.5,0,0,1-.25-.5,3.82,3.82,0,0,1-.2-.54h-2.43v4.31h3.06a7.68,7.68,0,0,1,.21-.8c.09-.29.19-.55.29-.8h.45v2.24Z" transform="translate(-350.7 -466.57)"/><path class="cls-3" d="M390,599.07v-.34a3.81,3.81,0,0,1,.54-.27,4.11,4.11,0,0,1,.6-.2l-.85-8h0l-3.36,8.78h-.61l-3.39-8.67h0l-.57,7.9a4.19,4.19,0,0,1,1.08.43v.34h-2.91v-.35a3.87,3.87,0,0,1,.83-.41l1-8.55q-.28-.09-.58-.21l-.57-.26v-.34h2.46l3.22,8.21,3.18-8.21h2.48v.34c-.16.09-.34.18-.55.26a4,4,0,0,1-.59.21l1,8.52a3.4,3.4,0,0,1,.46.21l.4.24v.35Z" transform="translate(-350.7 -466.57)"/><path class="cls-3" d="M406,589.58a3.34,3.34,0,0,1-.5.2l0,5.28a5.45,5.45,0,0,1-.25,1.73,3.52,3.52,0,0,1-.76,1.3,3.32,3.32,0,0,1-1.26.83,4.92,4.92,0,0,1-1.78.29,4.56,4.56,0,0,1-1.75-.3,3.09,3.09,0,0,1-1.16-.79,3,3,0,0,1-.63-1.15,4.78,4.78,0,0,1-.19-1.37v-5.87a3.37,3.37,0,0,1-.47-.19,4,4,0,0,1-.44-.25v-.34H400v.34a5.27,5.27,0,0,1-.54.25,4.37,4.37,0,0,1-.6.19v5.54a5.18,5.18,0,0,0,.14,1.2,2.48,2.48,0,0,0,.48,1,2.41,2.41,0,0,0,.93.68,3.74,3.74,0,0,0,1.49.26,2.52,2.52,0,0,0,2.06-.8,3.5,3.5,0,0,0,.63-2.35l-.08-5.47a3.59,3.59,0,0,1-.58-.21l-.55-.27v-.34h3v.34A3,3,0,0,1,406,589.58Zm-5.74-2.75a.69.69,0,0,1,.69.69.64.64,0,0,1-.2.48.68.68,0,0,1-.49.2.67.67,0,0,1-.68-.67.68.68,0,0,1,.2-.49A.64.64,0,0,1,400.27,586.83Zm2.86,0a.64.64,0,0,1,.48.2.68.68,0,0,1,.19.49.67.67,0,0,1-.67.67.68.68,0,0,1-.49-.2.64.64,0,0,1-.2-.48.69.69,0,0,1,.69-.69Z" transform="translate(-350.7 -466.57)"/><path class="cls-3" d="M419.89,589.3a5.35,5.35,0,0,1-.47.3,3.28,3.28,0,0,1-.49.22v9.36h-.72l-6.12-9,.3,8a4.8,4.8,0,0,1,.58.22,5.21,5.21,0,0,1,.54.28v.37H410.3v-.37c.17-.1.35-.2.54-.29a3.41,3.41,0,0,1,.55-.21l.09-8.45a4.33,4.33,0,0,1-1.19-.46v-.35h2.49l5.49,8.08-.21-7.21a3.51,3.51,0,0,1-.57-.22,5.37,5.37,0,0,1-.54-.3v-.35h2.93Z" transform="translate(-350.7 -466.57)"/><path class="cls-3" d="M430.73,591.44q-.15-.36-.28-.74a5.47,5.47,0,0,1-.19-.7,4.26,4.26,0,0,0-.92-.3,5.88,5.88,0,0,0-1.19-.11,2.59,2.59,0,0,0-2.26,1.15,5.57,5.57,0,0,0-.8,3.22,4.7,4.7,0,0,0,1,3.2,3.54,3.54,0,0,0,2.81,1.1,5.69,5.69,0,0,0,1.28-.14,5.21,5.21,0,0,0,1.12-.38l.17.54a5.43,5.43,0,0,1-1.41.66,5.87,5.87,0,0,1-1.77.25,4.28,4.28,0,0,1-3.32-1.28,5.25,5.25,0,0,1-1.18-3.68,6.21,6.21,0,0,1,.4-2.32,5,5,0,0,1,1.09-1.69,4.57,4.57,0,0,1,1.58-1,5.13,5.13,0,0,1,1.89-.35,10.81,10.81,0,0,1,1.27.08,6.76,6.76,0,0,1,1.17.24v2.29Z" transform="translate(-350.7 -466.57)"/><path class="cls-3" d="M442.1,599.07v-.35a5,5,0,0,1,1.11-.41v-4.17H437.6v4.17a5,5,0,0,1,1.11.41v.35h-3.46v-.35a5.69,5.69,0,0,1,1.14-.41v-8.59a4.76,4.76,0,0,1-.59-.18q-.28-.11-.55-.24v-.34h3.46v.34a5.63,5.63,0,0,1-.53.24,4.45,4.45,0,0,1-.58.18v3.78h5.61v-3.78a4.4,4.4,0,0,1-.58-.18,5.57,5.57,0,0,1-.53-.24v-.34h3.46v.34c-.18.09-.37.17-.55.24a4.79,4.79,0,0,1-.59.18v8.59a5.7,5.7,0,0,1,1.14.41v.35Z" transform="translate(-350.7 -466.57)"/><path class="cls-3" d="M449.5,599.07v-.35a5.69,5.69,0,0,1,1.14-.41v-8.59a5.59,5.59,0,0,1-.58-.18,6.1,6.1,0,0,1-.56-.24v-.34h6.31v2.14h-.44a6.83,6.83,0,0,1-.29-.76,5.84,5.84,0,0,1-.19-.79h-3v4h2.43a5.18,5.18,0,0,1,.2-.54,4.08,4.08,0,0,1,.25-.51h.38v2.68h-.37a4.5,4.5,0,0,1-.25-.5,3.88,3.88,0,0,1-.2-.54h-2.43v4.31h3.06a7.56,7.56,0,0,1,.21-.8q.13-.43.28-.8h.45v2.24Z" transform="translate(-350.7 -466.57)"/><path class="cls-3" d="M469.6,589.3a5.35,5.35,0,0,1-.47.3,3.28,3.28,0,0,1-.49.22v9.36h-.72l-6.12-9,.3,8a4.8,4.8,0,0,1,.58.22,5.21,5.21,0,0,1,.54.28v.37H460v-.37c.17-.1.35-.2.54-.29a3.41,3.41,0,0,1,.55-.21l.09-8.45a4.33,4.33,0,0,1-1.19-.46v-.35h2.49L468,597l-.21-7.21a3.51,3.51,0,0,1-.57-.22,5.37,5.37,0,0,1-.54-.3v-.35h2.93Z" transform="translate(-350.7 -466.57)"/><path class="cls-3" d="M477.1,599.07v-.35a5.69,5.69,0,0,1,1.14-.41v-8.59a5.59,5.59,0,0,1-.58-.18,6.1,6.1,0,0,1-.56-.24v-.34h6.31v2.14H483a6.64,6.64,0,0,1-.29-.76,5.85,5.85,0,0,1-.2-.79h-3v4h2.43a5.3,5.3,0,0,1,.2-.54,4.08,4.08,0,0,1,.25-.51h.38v2.68h-.37a4.5,4.5,0,0,1-.25-.5,4,4,0,0,1-.2-.54h-2.43v4.31h3.06a7.45,7.45,0,0,1,.21-.8q.13-.43.28-.8h.45v2.24Z" transform="translate(-350.7 -466.57)"/><path class="cls-3" d="M487,597.69a.74.74,0,0,1,.53.21.71.71,0,0,1,.22.53.76.76,0,0,1-.76.76.71.71,0,0,1-.53-.22.74.74,0,0,1-.22-.54.74.74,0,0,1,.74-.74Z" transform="translate(-350.7 -466.57)"/><path class="cls-3" d="M493.5,597.53h0l2.47-7.82a3.61,3.61,0,0,1-.52-.18l-.49-.24v-.34h2.91v.34a4.62,4.62,0,0,1-.41.25,2.19,2.19,0,0,1-.41.18l-3.55,9.46h-.72l-3.53-9.46a3.42,3.42,0,0,1-.46-.19,2.82,2.82,0,0,1-.41-.24v-.34h3.38v.34a5.77,5.77,0,0,1-1.14.43Z" transform="translate(-350.7 -466.57)"/><path class="cls-3" d="M499.29,597.69a.74.74,0,0,1,.53.21.71.71,0,0,1,.22.53.76.76,0,0,1-.76.76.71.71,0,0,1-.53-.22.74.74,0,0,1-.22-.54.74.74,0,0,1,.74-.74Z" transform="translate(-350.7 -466.57)"/></svg>