<?xml version="1.0" encoding="utf-8"?>
<!-- Generator: Adobe Illustrator 19.2.1, SVG Export Plug-In . SVG Version: 6.00 Build 0)  -->
<svg version="1.1" id="Ebene_1" xmlns="http://www.w3.org/2000/svg" xmlns:xlink="http://www.w3.org/1999/xlink" x="0px" y="0px"
	 viewBox="0 0 456.4 232.4" style="enable-background:new 0 0 456.4 232.4;" xml:space="preserve">
<style type="text/css">
	.st0{fill:#FFFFFF;}
	.st1{fill:#737366;}
	.st2{fill:#cc0000;}
</style>
<g>
	<rect x="-0.5" y="0" class="st0" width="456.4" height="232.4"/>
	<g>
		<path d="M247.1,112.8v-0.6c0.6-0.3,1.3-0.6,2.1-0.8v-7.5h-10.5v7.5c0.8,0.2,1.4,0.4,2.1,0.8v0.6h-6.5v-0.6
			c0.7-0.3,1.4-0.6,2.1-0.8V95.9c-0.4-0.1-0.7-0.2-1.1-0.3c-0.4-0.1-0.7-0.3-1-0.4v-0.6h6.5v0.6c-0.3,0.2-0.7,0.3-1,0.4
			c-0.3,0.1-0.7,0.2-1.1,0.3v6.8h10.5v-6.8c-0.4-0.1-0.7-0.2-1.1-0.3c-0.3-0.1-0.7-0.3-1-0.4v-0.6h6.5v0.6c-0.3,0.2-0.7,0.3-1,0.4
			c-0.4,0.1-0.7,0.2-1.1,0.3v15.5c0.8,0.2,1.5,0.4,2.1,0.8v0.6H247.1z"/>
		<path d="M274.2,103.4c0,1.5-0.3,2.9-0.8,4.1c-0.5,1.2-1.2,2.2-2.1,3c-0.9,0.8-1.9,1.4-3,1.9c-1.1,0.4-2.3,0.7-3.5,0.7
			c-1.4,0-2.6-0.2-3.7-0.6c-1.1-0.4-2-1-2.7-1.8c-0.7-0.8-1.3-1.7-1.7-2.9c-0.4-1.1-0.6-2.4-0.6-3.8c0-1.5,0.3-2.8,0.8-4
			c0.5-1.2,1.2-2.2,2.2-3.1c0.9-0.8,1.9-1.5,3.1-1.9c1.1-0.4,2.3-0.6,3.5-0.6c1.3,0,2.5,0.2,3.6,0.6c1.1,0.4,2,1,2.8,1.8
			c0.8,0.8,1.3,1.7,1.7,2.9C274,100.7,274.2,101.9,274.2,103.4z M271.7,103.8c0-1.2-0.2-2.3-0.5-3.3c-0.3-1-0.8-1.9-1.4-2.6
			c-0.6-0.7-1.4-1.3-2.3-1.7c-0.9-0.4-1.9-0.6-3.1-0.6c-1.8,0-3.3,0.7-4.4,2.1c-1.1,1.4-1.6,3.3-1.6,5.8c0,1.2,0.2,2.3,0.5,3.3
			c0.3,1,0.8,1.9,1.4,2.6c0.6,0.7,1.4,1.3,2.3,1.7c0.9,0.4,1.9,0.6,3.1,0.6c1.9,0,3.3-0.7,4.4-2
			C271.2,108.3,271.7,106.3,271.7,103.8z"/>
		<path d="M289.7,99c-0.2-0.4-0.4-0.9-0.5-1.3c-0.2-0.5-0.3-0.9-0.4-1.3c-0.5-0.2-1.1-0.4-1.7-0.5c-0.6-0.1-1.4-0.2-2.2-0.2
			c-1.8,0-3.2,0.7-4.3,2.1c-1,1.4-1.5,3.3-1.5,5.8c0,2.5,0.6,4.4,1.8,5.8c1.2,1.3,3,2,5.3,2c0.8,0,1.6-0.1,2.4-0.3
			c0.8-0.2,1.5-0.4,2.1-0.7l0.3,1c-0.8,0.5-1.6,0.9-2.7,1.2c-1,0.3-2.1,0.5-3.3,0.5c-2.7,0-4.8-0.8-6.2-2.3
			c-1.5-1.5-2.2-3.8-2.2-6.7c0-1.6,0.3-3,0.8-4.2c0.5-1.2,1.2-2.2,2-3.1c0.9-0.8,1.8-1.4,3-1.9c1.1-0.4,2.3-0.6,3.6-0.6
			c0.8,0,1.6,0,2.4,0.1c0.8,0.1,1.5,0.2,2.2,0.4V99H289.7z"/>
		<path d="M307,112.8v-0.6c0.6-0.3,1.3-0.6,2.1-0.8v-7.5h-10.5v7.5c0.8,0.2,1.4,0.4,2.1,0.8v0.6h-6.5v-0.6c0.7-0.3,1.4-0.6,2.1-0.8
			V95.9c-0.4-0.1-0.7-0.2-1.1-0.3c-0.4-0.1-0.7-0.3-1-0.4v-0.6h6.5v0.6c-0.3,0.2-0.7,0.3-1,0.4c-0.3,0.1-0.7,0.2-1.1,0.3v6.8H309
			v-6.8c-0.4-0.1-0.7-0.2-1.1-0.3c-0.3-0.1-0.7-0.3-1-0.4v-0.6h6.5v0.6c-0.3,0.2-0.7,0.3-1,0.4c-0.4,0.1-0.7,0.2-1.1,0.3v15.5
			c0.8,0.2,1.5,0.4,2.1,0.8v0.6H307z"/>
		<path d="M327.4,107.6c0,0.8-0.2,1.5-0.6,2.2c-0.4,0.7-0.9,1.2-1.5,1.7c-0.6,0.5-1.4,0.9-2.2,1.2c-0.8,0.3-1.7,0.4-2.7,0.4
			c-0.7,0-1.3,0-2-0.1c-0.7-0.1-1.4-0.2-2-0.4v-4.6h0.8c0.2,0.5,0.4,1,0.6,1.5c0.2,0.5,0.3,1,0.4,1.5c0.4,0.2,0.8,0.3,1.3,0.4
			c0.5,0.1,1,0.2,1.6,0.2c0.5,0,1,0,1.5-0.1c0.5-0.1,0.9-0.3,1.2-0.5c0.3-0.2,0.6-0.6,0.8-1c0.2-0.4,0.3-0.9,0.3-1.6
			c0-0.7-0.2-1.3-0.6-1.8c-0.4-0.5-0.9-0.9-1.6-1.3c-0.7-0.3-1.4-0.7-2.2-1c-0.8-0.3-1.5-0.7-2.2-1.1c-0.7-0.4-1.2-0.9-1.6-1.5
			c-0.4-0.6-0.6-1.4-0.6-2.2c0-0.7,0.1-1.3,0.5-1.9c0.3-0.6,0.7-1.2,1.3-1.6c0.6-0.5,1.3-0.9,2-1.1c0.8-0.3,1.7-0.4,2.7-0.4
			c1.2,0,2.4,0.1,3.5,0.4v4.1h-0.8c-0.2-0.4-0.5-0.9-0.6-1.4c-0.2-0.5-0.3-1-0.4-1.3c-0.3-0.1-0.6-0.2-1-0.2
			c-0.4-0.1-0.9-0.1-1.5-0.1c-2.2,0-3.4,1-3.4,3c0,0.7,0.2,1.3,0.6,1.7c0.4,0.5,1,0.9,1.6,1.2c0.7,0.3,1.4,0.6,2.2,0.9
			c0.8,0.3,1.5,0.7,2.2,1.1c0.7,0.4,1.2,0.9,1.7,1.6C327.2,105.9,327.4,106.7,327.4,107.6z"/>
		<path d="M343.8,99c-0.2-0.4-0.4-0.9-0.5-1.3c-0.2-0.5-0.3-0.9-0.4-1.3c-0.5-0.2-1.1-0.4-1.7-0.5c-0.6-0.1-1.4-0.2-2.2-0.2
			c-1.8,0-3.2,0.7-4.3,2.1c-1,1.4-1.5,3.3-1.5,5.8c0,2.5,0.6,4.4,1.8,5.8c1.2,1.3,3,2,5.3,2c0.8,0,1.6-0.1,2.4-0.3
			c0.8-0.2,1.5-0.4,2.1-0.7l0.3,1c-0.8,0.5-1.6,0.9-2.7,1.2c-1,0.3-2.1,0.5-3.3,0.5c-2.7,0-4.8-0.8-6.2-2.3
			c-1.5-1.5-2.2-3.8-2.2-6.7c0-1.6,0.3-3,0.8-4.2c0.5-1.2,1.2-2.2,2-3.1c0.9-0.8,1.8-1.4,3-1.9c1.1-0.4,2.3-0.6,3.6-0.6
			c0.8,0,1.6,0,2.4,0.1c0.8,0.1,1.5,0.2,2.2,0.4V99H343.8z"/>
		<path d="M360.5,112.8v-0.6c0.6-0.3,1.3-0.6,2.1-0.8v-7.5h-10.5v7.5c0.8,0.2,1.4,0.4,2.1,0.8v0.6h-6.5v-0.6
			c0.7-0.3,1.4-0.6,2.1-0.8V95.9c-0.4-0.1-0.7-0.2-1.1-0.3c-0.4-0.1-0.7-0.3-1-0.4v-0.6h6.5v0.6c-0.3,0.2-0.7,0.3-1,0.4
			c-0.3,0.1-0.7,0.2-1.1,0.3v6.8h10.5v-6.8c-0.4-0.1-0.7-0.2-1.1-0.3c-0.3-0.1-0.7-0.3-1-0.4v-0.6h6.5v0.6c-0.3,0.2-0.7,0.3-1,0.4
			c-0.4,0.1-0.7,0.2-1.1,0.3v15.5c0.8,0.2,1.5,0.4,2.1,0.8v0.6H360.5z"/>
		<path d="M386.9,95.6c-0.3,0.1-0.6,0.3-0.9,0.3l-0.1,9.5c0,1.2-0.2,2.2-0.5,3.1c-0.3,0.9-0.8,1.7-1.4,2.4c-0.6,0.6-1.4,1.1-2.4,1.5
			c-0.9,0.4-2.1,0.5-3.3,0.5c-1.3,0-2.4-0.2-3.3-0.5c-0.9-0.4-1.6-0.8-2.2-1.4c-0.6-0.6-1-1.3-1.2-2.1c-0.2-0.8-0.4-1.6-0.4-2.5
			V95.9c-0.3-0.1-0.6-0.2-0.9-0.3c-0.3-0.1-0.6-0.3-0.8-0.5v-0.6h6.2v0.6c-0.3,0.2-0.7,0.3-1,0.4c-0.4,0.1-0.7,0.2-1.1,0.3v10
			c0,0.8,0.1,1.5,0.3,2.2c0.2,0.7,0.5,1.3,0.9,1.8c0.4,0.5,1,0.9,1.8,1.2c0.7,0.3,1.7,0.4,2.8,0.4c1.7,0,3-0.5,3.8-1.5
			c0.8-1,1.3-2.4,1.2-4.2l-0.1-9.9c-0.4-0.1-0.7-0.2-1.1-0.4c-0.4-0.2-0.7-0.3-1-0.5v-0.6h5.7v0.6C387.5,95.3,387.2,95.5,386.9,95.6
			z"/>
		<path d="M390.6,112.8v-0.6c0.7-0.3,1.4-0.6,2.2-0.8V95.9c-0.4-0.1-0.7-0.2-1.1-0.3c-0.4-0.1-0.7-0.3-1.1-0.4v-0.6h6.6v0.6
			c-0.3,0.1-0.7,0.3-1.1,0.4c-0.4,0.2-0.8,0.3-1.1,0.3v15.8l6-0.3c0.1-0.4,0.2-0.9,0.4-1.5c0.2-0.6,0.4-1.1,0.6-1.5h0.8v4.3H390.6z"
			/>
		<path d="M405.1,112.8v-0.6c0.7-0.3,1.4-0.6,2.2-0.8V95.9c-0.4-0.1-0.7-0.2-1.1-0.3c-0.4-0.1-0.7-0.3-1.1-0.4v-0.6h11.9v3.9h-0.8
			c-0.2-0.4-0.4-0.9-0.5-1.4c-0.2-0.5-0.3-1-0.4-1.4h-5.7v7.2h4.6c0.1-0.3,0.2-0.6,0.4-1c0.2-0.3,0.3-0.6,0.5-0.9h0.7v4.8h-0.7
			c-0.2-0.3-0.3-0.6-0.5-0.9c-0.2-0.3-0.3-0.6-0.4-1h-4.6v7.8h5.8c0.1-0.5,0.2-0.9,0.4-1.5c0.2-0.5,0.3-1,0.5-1.5h0.8v4H405.1z"/>
	</g>
	<g>
		<g>
			<path class="st1" d="M251.9,121.3c0.3,0,0.5,0.1,0.7,0.3c0.2,0.2,0.3,0.4,0.3,0.7c0,0.3-0.1,0.5-0.3,0.7
				c-0.2,0.2-0.4,0.3-0.7,0.3c-0.3,0-0.5-0.1-0.7-0.3c-0.2-0.2-0.3-0.4-0.3-0.7c0-0.3,0.1-0.5,0.3-0.7
				C251.4,121.4,251.6,121.3,251.9,121.3z"/>
			<path class="st1" d="M255.5,121.3c0.3,0,0.5,0.1,0.7,0.3c0.2,0.2,0.3,0.4,0.3,0.7c0,0.3-0.1,0.5-0.3,0.7
				c-0.2,0.2-0.4,0.3-0.7,0.3c-0.3,0-0.5-0.1-0.7-0.3c-0.2-0.2-0.3-0.4-0.3-0.7c0-0.3,0.1-0.5,0.3-0.7
				C255,121.4,255.2,121.3,255.5,121.3z"/>
		</g>
		<g>
			<path class="st1" d="M244,127.2c-0.1-0.3-0.3-0.7-0.4-1c-0.1-0.3-0.2-0.7-0.3-1h-4v5.3h3.2c0.1-0.2,0.2-0.5,0.3-0.7
				c0.1-0.2,0.2-0.4,0.3-0.6h0.5v3.5h-0.5c-0.1-0.2-0.2-0.4-0.4-0.7c-0.1-0.2-0.2-0.5-0.3-0.7h-3.2v5.3c0.3,0.1,0.5,0.1,0.8,0.2
				c0.3,0.1,0.6,0.2,0.8,0.3v0.5h-4.9v-0.5c0.5-0.2,1-0.4,1.6-0.5v-11.1c-0.3-0.1-0.5-0.1-0.8-0.2c-0.3-0.1-0.5-0.2-0.8-0.3v-0.4
				h8.5v2.8H244z"/>
			<path class="st1" d="M259.5,125.2c-0.2,0.1-0.5,0.2-0.7,0.2l0,6.9c0,0.8-0.1,1.6-0.3,2.3c-0.2,0.7-0.6,1.2-1,1.7
				c-0.5,0.5-1,0.8-1.7,1.1c-0.7,0.3-1.5,0.4-2.4,0.4c-0.9,0-1.7-0.1-2.4-0.4c-0.7-0.3-1.2-0.6-1.6-1c-0.4-0.4-0.7-0.9-0.9-1.5
				c-0.2-0.6-0.3-1.2-0.3-1.8v-7.6c-0.2-0.1-0.4-0.1-0.7-0.2c-0.2-0.1-0.4-0.2-0.6-0.3v-0.4h4.5v0.4c-0.2,0.1-0.5,0.2-0.7,0.3
				c-0.3,0.1-0.5,0.2-0.8,0.2v7.2c0,0.5,0.1,1.1,0.2,1.6c0.1,0.5,0.3,0.9,0.7,1.3c0.3,0.4,0.7,0.7,1.3,0.9c0.5,0.2,1.2,0.3,2,0.3
				c1.2,0,2.2-0.3,2.8-1c0.6-0.7,0.9-1.7,0.9-3.1l-0.1-7.1c-0.3-0.1-0.5-0.2-0.8-0.3c-0.3-0.1-0.5-0.2-0.7-0.3v-0.4h4.2v0.4
				C259.9,125,259.7,125.1,259.5,125.2z"/>
			<path class="st1" d="M272,137.6c-0.3,0-0.6,0.1-0.8,0.1c-0.3,0-0.6-0.2-0.9-0.5c-0.3-0.3-0.5-0.7-0.7-1.2c-0.2-0.5-0.4-1-0.6-1.6
				c-0.2-0.6-0.4-1.1-0.7-1.6c-0.2-0.5-0.5-0.9-0.9-1.2c-0.3-0.3-0.7-0.5-1.1-0.5h-1v5.4c0.3,0.1,0.5,0.1,0.8,0.2s0.5,0.2,0.7,0.3
				v0.5h-4.7v-0.5c0.5-0.2,1-0.4,1.6-0.5v-11.1c-0.3-0.1-0.5-0.1-0.8-0.2c-0.3-0.1-0.5-0.2-0.8-0.3v-0.4h1.4c0.3,0,0.7,0,1.3,0
				c0.6,0,1.4,0,2.4,0c1.4,0,2.5,0.3,3.2,0.8c0.7,0.5,1.1,1.3,1.1,2.4c0,0.9-0.3,1.6-0.9,2.2c-0.6,0.5-1.4,0.9-2.4,1.1
				c0.4,0.1,0.8,0.3,1,0.6c0.3,0.3,0.5,0.7,0.7,1.2c0.2,0.5,0.4,1,0.6,1.5c0.2,0.5,0.4,1,0.6,1.4c0.2,0.4,0.4,0.8,0.7,1
				c0.3,0.2,0.6,0.3,1,0.2l0.1,0.6C272.6,137.5,272.3,137.6,272,137.6z M269.8,127.8c0-1.8-1.1-2.7-3.2-2.7c-0.2,0-0.4,0-0.6,0
				c-0.2,0-0.4,0.1-0.5,0.1v5.2h1.3c0.6,0,1-0.1,1.4-0.2c0.4-0.1,0.7-0.3,1-0.5c0.3-0.2,0.4-0.5,0.6-0.8
				C269.7,128.5,269.8,128.1,269.8,127.8z"/>
			<path class="st1" d="M285.2,137.5v-0.5c0.5-0.2,1-0.4,1.6-0.5l-1-2.5h-5.5l-0.9,2.5c0.5,0.1,1,0.3,1.4,0.5v0.5h-4v-0.5
				c0.4-0.2,0.8-0.4,1.2-0.5l5-12.3h1l4.7,12.3c0.2,0.1,0.4,0.2,0.7,0.3c0.2,0.1,0.4,0.2,0.5,0.3v0.5H285.2z M283,126.4L283,126.4
				l-2.4,6.8h5L283,126.4z"/>
			<path class="st1" d="M304.3,124.8c-0.2,0.1-0.4,0.3-0.6,0.4c-0.2,0.1-0.4,0.2-0.7,0.3v12.1h-1l-8.3-11.7l0.4,10.4
				c0.3,0.1,0.5,0.2,0.8,0.3c0.3,0.1,0.5,0.2,0.7,0.4v0.5h-4.3V137c0.2-0.1,0.5-0.3,0.7-0.4c0.3-0.1,0.5-0.2,0.8-0.3l0.1-11
				c-0.3-0.1-0.6-0.1-0.8-0.2c-0.3-0.1-0.5-0.2-0.8-0.3v-0.4h3.4l7.5,10.5l-0.3-9.4c-0.2-0.1-0.5-0.2-0.8-0.3
				c-0.3-0.1-0.5-0.3-0.7-0.4v-0.5h4V124.8z"/>
			<path class="st1" d="M318.1,132.1v4.3c-0.7,0.4-1.5,0.8-2.3,1c-0.9,0.2-1.7,0.3-2.6,0.3c-0.9,0-1.8-0.1-2.6-0.4
				c-0.8-0.3-1.5-0.7-2.1-1.3c-0.6-0.5-1-1.2-1.4-2c-0.3-0.8-0.5-1.7-0.5-2.8c0-1.1,0.2-2,0.6-2.9c0.4-0.9,0.9-1.6,1.5-2.2
				c0.7-0.6,1.4-1.1,2.3-1.4c0.9-0.3,1.8-0.5,2.9-0.5c0.7,0,1.4,0,2,0.1c0.7,0.1,1.3,0.2,1.9,0.4v3h-0.6c-0.1-0.3-0.3-0.6-0.4-0.9
				c-0.1-0.3-0.2-0.6-0.3-0.9c-0.4-0.2-1-0.4-1.6-0.5c-0.6-0.1-1.2-0.2-1.9-0.2c-1.5,0-2.7,0.5-3.5,1.5c-0.8,1-1.3,2.4-1.3,4.2
				c0,0.9,0.1,1.8,0.4,2.5c0.3,0.7,0.7,1.3,1.1,1.8c0.5,0.5,1.1,0.9,1.8,1.1c0.7,0.3,1.5,0.4,2.4,0.4c0.4,0,0.8,0,1.2-0.1
				c0.4-0.1,0.8-0.2,1.2-0.3v-4.1c-0.3-0.1-0.6-0.2-0.8-0.3c-0.3-0.1-0.5-0.2-0.8-0.4V131h4.6v0.5
				C319,131.7,318.6,131.9,318.1,132.1z"/>
			<path class="st1" d="M321.4,137.5v-0.5c0.5-0.2,1-0.4,1.6-0.5v-11.1c-0.3-0.1-0.5-0.1-0.8-0.2c-0.3-0.1-0.5-0.2-0.8-0.3v-0.4h8.6
				v2.8h-0.6c-0.1-0.3-0.3-0.6-0.4-1c-0.1-0.4-0.2-0.7-0.3-1h-4.1v5.2h3.3c0.1-0.2,0.2-0.4,0.3-0.7c0.1-0.2,0.2-0.5,0.3-0.7h0.5v3.5
				h-0.5c-0.1-0.2-0.2-0.4-0.3-0.6c-0.1-0.2-0.2-0.5-0.3-0.7h-3.3v5.6h4.2c0.1-0.3,0.2-0.7,0.3-1c0.1-0.4,0.3-0.7,0.4-1h0.6v2.9
				H321.4z"/>
			<path class="st1" d="M349.7,125.2c-0.2,0.1-0.4,0.2-0.6,0.2l-3.5,12.3h-1.1l-3.5-10.5h0l-3,10.5H337l-3.6-12.3
				c-0.2-0.1-0.4-0.1-0.6-0.3c-0.2-0.1-0.4-0.2-0.6-0.3v-0.4h4.5v0.4c-0.2,0.1-0.5,0.3-0.8,0.4c-0.3,0.1-0.5,0.2-0.8,0.3l2.7,9.5h0
				l3-10.7h0.9l3.5,10.7h0l2.2-9.6c-0.5-0.1-1-0.3-1.5-0.6v-0.4h4.1v0.4C350.1,124.9,349.9,125.1,349.7,125.2z"/>
			<path class="st1" d="M358.6,137.5v-0.5c0.5-0.2,1-0.4,1.6-0.5l-1-2.5h-5.5l-0.9,2.5c0.5,0.1,1,0.3,1.4,0.5v0.5h-4v-0.5
				c0.4-0.2,0.8-0.4,1.2-0.5l5-12.3h1l4.7,12.3c0.2,0.1,0.4,0.2,0.7,0.3c0.2,0.1,0.4,0.2,0.5,0.3v0.5H358.6z M356.4,126.4
				L356.4,126.4l-2.4,6.8h5L356.4,126.4z"/>
			<path class="st1" d="M377.6,124.8c-0.2,0.1-0.4,0.3-0.6,0.4c-0.2,0.1-0.4,0.2-0.7,0.3v12.1h-1L367,126l0.4,10.4
				c0.3,0.1,0.5,0.2,0.8,0.3c0.3,0.1,0.5,0.2,0.7,0.4v0.5h-4.3V137c0.2-0.1,0.5-0.3,0.7-0.4c0.3-0.1,0.5-0.2,0.8-0.3l0.1-11
				c-0.3-0.1-0.6-0.1-0.8-0.2c-0.3-0.1-0.5-0.2-0.8-0.3v-0.4h3.4l7.5,10.5l-0.3-9.4c-0.2-0.1-0.5-0.2-0.8-0.3
				c-0.3-0.1-0.5-0.3-0.7-0.4v-0.5h4V124.8z"/>
			<path class="st1" d="M393,130.8c0,1.1-0.2,2.1-0.6,3c-0.4,0.9-1,1.6-1.7,2.1c-0.7,0.6-1.6,1-2.6,1.3c-1,0.3-2,0.4-3.2,0.4
				c-0.7,0-1.3,0-1.9,0c-0.6,0-1.1,0-1.5,0h-1.6v-0.5c0.5-0.2,1-0.4,1.6-0.5v-11.1c-0.3-0.1-0.5-0.1-0.8-0.2
				c-0.3-0.1-0.5-0.2-0.8-0.3v-0.4h1.6c0.3,0,0.6,0,0.9,0c0.3,0,0.8,0,1.3,0c0.5,0,0.9,0,1.2,0c0.3,0,0.6,0,1,0
				c2.4,0,4.2,0.5,5.4,1.6C392.4,127,393,128.6,393,130.8z M391.3,131.1c0-0.9-0.1-1.8-0.4-2.5c-0.2-0.7-0.6-1.4-1.1-1.9
				c-0.5-0.5-1.1-0.9-1.9-1.2c-0.8-0.3-1.7-0.4-2.7-0.4c-0.4,0-0.8,0-1.1,0c-0.3,0-0.6,0-0.9,0.1v11.2c0.3,0.1,0.7,0.2,1.2,0.2
				c0.5,0.1,1.1,0.1,1.8,0.1c0.7,0,1.3-0.1,1.9-0.4c0.6-0.2,1.2-0.6,1.6-1c0.5-0.5,0.8-1,1.1-1.8C391.1,132.9,391.3,132,391.3,131.1
				z"/>
			<path class="st1" d="M405.3,127.4h-0.6c-0.2-0.3-0.3-0.7-0.5-1.1c-0.1-0.4-0.2-0.8-0.3-1.1h-3.2v11.4c0.6,0.1,1.1,0.3,1.6,0.5
				v0.5h-4.8v-0.5c0.5-0.2,1-0.4,1.6-0.5v-11.4H396c-0.1,0.4-0.2,0.7-0.3,1.1c-0.1,0.4-0.3,0.8-0.5,1.1h-0.6v-3h10.6V127.4z"/>
			<path class="st1" d="M406.9,137.5v-0.5c0.5-0.2,1-0.4,1.6-0.5v-11.1c-0.3-0.1-0.5-0.1-0.8-0.2c-0.3-0.1-0.5-0.2-0.8-0.3v-0.4h8.6
				v2.8h-0.6c-0.1-0.3-0.3-0.6-0.4-1c-0.1-0.4-0.2-0.7-0.3-1h-4.1v5.2h3.3c0.1-0.2,0.2-0.4,0.3-0.7c0.1-0.2,0.2-0.5,0.3-0.7h0.5v3.5
				h-0.5c-0.1-0.2-0.2-0.4-0.3-0.6c-0.1-0.2-0.2-0.5-0.3-0.7h-3.3v5.6h4.2c0.1-0.3,0.2-0.7,0.3-1c0.1-0.4,0.3-0.7,0.4-1h0.6v2.9
				H406.9z"/>
			<path class="st1" d="M258,146.6c-0.2,0.1-0.4,0.2-0.6,0.2l-3.5,12.3h-1.1l-3.5-10.5h0l-3,10.5h-1.1l-3.6-12.3
				c-0.2-0.1-0.4-0.1-0.6-0.3c-0.2-0.1-0.4-0.2-0.6-0.3v-0.4h4.5v0.4c-0.2,0.1-0.5,0.3-0.8,0.4c-0.3,0.1-0.5,0.2-0.8,0.2l2.7,9.5h0
				l3-10.7h0.9l3.5,10.7h0l2.2-9.6c-0.5-0.1-1-0.3-1.5-0.6v-0.4h4.1v0.4C258.4,146.3,258.2,146.5,258,146.6z"/>
			<path class="st1" d="M260.2,158.9v-0.5c0.5-0.2,1-0.4,1.6-0.5v-11.1c-0.3-0.1-0.5-0.1-0.8-0.2c-0.3-0.1-0.5-0.2-0.8-0.3v-0.4h4.8
				v0.4c-0.2,0.1-0.5,0.2-0.8,0.3c-0.3,0.1-0.5,0.2-0.8,0.3v11.1c0.5,0.1,1.1,0.3,1.6,0.5v0.5H260.2z"/>
			<path class="st1" d="M275.8,155.2c0,0.6-0.1,1.1-0.4,1.6c-0.3,0.5-0.6,0.9-1.1,1.2c-0.5,0.4-1,0.6-1.6,0.8
				c-0.6,0.2-1.3,0.3-1.9,0.3c-0.5,0-1,0-1.5-0.1c-0.5-0.1-1-0.2-1.4-0.3v-3.3h0.6c0.2,0.4,0.3,0.7,0.4,1.1c0.1,0.4,0.2,0.7,0.3,1
				c0.3,0.1,0.6,0.2,1,0.3c0.4,0.1,0.8,0.1,1.2,0.1c0.4,0,0.7,0,1.1-0.1c0.3-0.1,0.6-0.2,0.9-0.4c0.3-0.2,0.5-0.4,0.6-0.7
				c0.1-0.3,0.2-0.7,0.2-1.1c0-0.5-0.1-1-0.4-1.3c-0.3-0.4-0.7-0.7-1.2-0.9c-0.5-0.2-1-0.5-1.6-0.7c-0.6-0.2-1.1-0.5-1.6-0.8
				c-0.5-0.3-0.9-0.7-1.2-1.1c-0.3-0.4-0.5-1-0.5-1.6c0-0.5,0.1-0.9,0.3-1.4c0.2-0.4,0.5-0.8,1-1.2c0.4-0.3,0.9-0.6,1.5-0.8
				c0.6-0.2,1.2-0.3,1.9-0.3c0.9,0,1.7,0.1,2.5,0.3v3h-0.6c-0.2-0.3-0.3-0.7-0.5-1.1c-0.1-0.4-0.2-0.7-0.3-1
				c-0.2-0.1-0.4-0.1-0.8-0.2c-0.3,0-0.7-0.1-1.1-0.1c-1.6,0-2.4,0.7-2.4,2.2c0,0.5,0.2,0.9,0.5,1.3c0.3,0.3,0.7,0.6,1.2,0.9
				c0.5,0.2,1,0.5,1.6,0.7c0.6,0.2,1.1,0.5,1.6,0.8c0.5,0.3,0.9,0.7,1.2,1.1C275.7,154,275.8,154.5,275.8,155.2z"/>
			<path class="st1" d="M286.9,155.2c0,0.6-0.1,1.1-0.4,1.6c-0.3,0.5-0.6,0.9-1.1,1.2c-0.5,0.4-1,0.6-1.6,0.8
				c-0.6,0.2-1.3,0.3-1.9,0.3c-0.5,0-1,0-1.5-0.1c-0.5-0.1-1-0.2-1.4-0.3v-3.3h0.6c0.1,0.4,0.3,0.7,0.4,1.1c0.1,0.4,0.2,0.7,0.3,1
				c0.3,0.1,0.6,0.2,1,0.3c0.4,0.1,0.8,0.1,1.2,0.1c0.4,0,0.7,0,1.1-0.1c0.3-0.1,0.6-0.2,0.9-0.4c0.3-0.2,0.5-0.4,0.6-0.7
				c0.2-0.3,0.2-0.7,0.2-1.1c0-0.5-0.1-1-0.4-1.3c-0.3-0.4-0.7-0.7-1.2-0.9c-0.5-0.2-1-0.5-1.6-0.7c-0.6-0.2-1.1-0.5-1.6-0.8
				c-0.5-0.3-0.9-0.7-1.2-1.1c-0.3-0.4-0.4-1-0.4-1.6c0-0.5,0.1-0.9,0.3-1.4c0.2-0.4,0.5-0.8,1-1.2c0.4-0.3,0.9-0.6,1.5-0.8
				c0.6-0.2,1.2-0.3,2-0.3c0.9,0,1.7,0.1,2.5,0.3v3h-0.6c-0.2-0.3-0.3-0.7-0.5-1.1c-0.1-0.4-0.2-0.7-0.3-1c-0.2-0.1-0.4-0.1-0.8-0.2
				c-0.3,0-0.7-0.1-1.1-0.1c-1.6,0-2.4,0.7-2.4,2.2c0,0.5,0.2,0.9,0.5,1.3c0.3,0.3,0.7,0.6,1.2,0.9c0.5,0.2,1,0.5,1.6,0.7
				c0.6,0.2,1.1,0.5,1.6,0.8c0.5,0.3,0.9,0.7,1.2,1.1C286.8,154,286.9,154.5,286.9,155.2z"/>
			<path class="st1" d="M289.6,158.9v-0.5c0.5-0.2,1-0.4,1.6-0.5v-11.1c-0.3-0.1-0.5-0.1-0.8-0.2c-0.3-0.1-0.5-0.2-0.8-0.3v-0.4h8.6
				v2.8h-0.6c-0.1-0.3-0.3-0.6-0.4-1c-0.1-0.4-0.2-0.7-0.3-1h-4.1v5.2h3.3c0.1-0.2,0.2-0.4,0.3-0.7c0.1-0.2,0.2-0.5,0.3-0.7h0.5v3.5
				h-0.5c-0.1-0.2-0.2-0.4-0.3-0.6c-0.1-0.2-0.2-0.5-0.3-0.7h-3.3v5.6h4.2c0.1-0.3,0.2-0.7,0.3-1c0.1-0.4,0.3-0.7,0.4-1h0.6v2.9
				H289.6z"/>
			<path class="st1" d="M314,146.2c-0.2,0.1-0.4,0.3-0.6,0.4c-0.2,0.1-0.4,0.2-0.7,0.3v12.1h-1l-8.3-11.7l0.4,10.4
				c0.3,0.1,0.5,0.2,0.8,0.3c0.3,0.1,0.5,0.2,0.7,0.4v0.5H301v-0.5c0.2-0.1,0.5-0.3,0.7-0.4c0.3-0.1,0.5-0.2,0.8-0.3l0.1-11
				c-0.3-0.1-0.6-0.1-0.8-0.2c-0.3-0.1-0.5-0.2-0.8-0.3v-0.4h3.4l7.5,10.5l-0.3-9.4c-0.2-0.1-0.5-0.2-0.8-0.3
				c-0.3-0.1-0.5-0.3-0.7-0.4v-0.5h4V146.2z"/>
			<path class="st1" d="M324.8,155.2c0,0.6-0.1,1.1-0.4,1.6c-0.3,0.5-0.6,0.9-1.1,1.2c-0.5,0.4-1,0.6-1.6,0.8
				c-0.6,0.2-1.3,0.3-1.9,0.3c-0.5,0-1,0-1.5-0.1c-0.5-0.1-1-0.2-1.4-0.3v-3.3h0.6c0.2,0.4,0.3,0.7,0.4,1.1c0.1,0.4,0.2,0.7,0.3,1
				c0.3,0.1,0.6,0.2,1,0.3c0.4,0.1,0.8,0.1,1.2,0.1c0.4,0,0.7,0,1.1-0.1c0.3-0.1,0.6-0.2,0.9-0.4c0.3-0.2,0.5-0.4,0.6-0.7
				c0.2-0.3,0.2-0.7,0.2-1.1c0-0.5-0.1-1-0.4-1.3c-0.3-0.4-0.7-0.7-1.2-0.9c-0.5-0.2-1-0.5-1.6-0.7c-0.6-0.2-1.1-0.5-1.6-0.8
				c-0.5-0.3-0.9-0.7-1.2-1.1c-0.3-0.4-0.4-1-0.4-1.6c0-0.5,0.1-0.9,0.3-1.4c0.2-0.4,0.5-0.8,1-1.2c0.4-0.3,0.9-0.6,1.5-0.8
				c0.6-0.2,1.2-0.3,2-0.3c0.9,0,1.7,0.1,2.5,0.3v3h-0.6c-0.2-0.3-0.3-0.7-0.5-1.1c-0.1-0.4-0.2-0.7-0.3-1c-0.2-0.1-0.4-0.1-0.8-0.2
				c-0.3,0-0.7-0.1-1.1-0.1c-1.6,0-2.4,0.7-2.4,2.2c0,0.5,0.2,0.9,0.5,1.3c0.3,0.3,0.7,0.6,1.2,0.9c0.5,0.2,1,0.5,1.6,0.7
				c0.6,0.2,1.1,0.5,1.6,0.8c0.5,0.3,0.9,0.7,1.2,1.1C324.6,154,324.8,154.5,324.8,155.2z"/>
			<path class="st1" d="M336.7,149c-0.1-0.3-0.3-0.6-0.4-1c-0.1-0.3-0.2-0.6-0.3-0.9c-0.4-0.2-0.8-0.3-1.3-0.4
				c-0.5-0.1-1-0.1-1.6-0.1c-1.3,0-2.4,0.5-3.1,1.5c-0.7,1-1.1,2.4-1.1,4.2c0,1.8,0.4,3.2,1.3,4.1c0.9,1,2.2,1.4,3.9,1.4
				c0.6,0,1.2-0.1,1.8-0.2c0.6-0.1,1.1-0.3,1.5-0.5l0.2,0.7c-0.5,0.4-1.2,0.6-1.9,0.9c-0.7,0.2-1.5,0.3-2.4,0.3
				c-2,0-3.5-0.6-4.5-1.7c-1.1-1.1-1.6-2.7-1.6-4.8c0-1.1,0.2-2.1,0.6-3c0.4-0.9,0.9-1.6,1.5-2.2c0.6-0.6,1.3-1,2.2-1.3
				c0.8-0.3,1.7-0.5,2.6-0.5c0.6,0,1.2,0,1.7,0.1c0.6,0.1,1.1,0.2,1.6,0.3v3H336.7z"/>
			<path class="st1" d="M349.2,158.9v-0.5c0.5-0.2,1-0.4,1.5-0.5v-5.4h-7.6v5.4c0.5,0.1,1.1,0.3,1.5,0.5v0.5h-4.7v-0.5
				c0.5-0.2,1-0.4,1.6-0.5v-11.1c-0.3-0.1-0.5-0.1-0.8-0.2c-0.3-0.1-0.5-0.2-0.8-0.3v-0.4h4.7v0.4c-0.2,0.1-0.5,0.2-0.7,0.3
				c-0.3,0.1-0.5,0.2-0.8,0.2v4.9h7.6v-4.9c-0.3-0.1-0.5-0.1-0.8-0.2c-0.3-0.1-0.5-0.2-0.7-0.3v-0.4h4.7v0.4
				c-0.2,0.1-0.5,0.2-0.8,0.3c-0.3,0.1-0.5,0.2-0.8,0.2v11.1c0.5,0.1,1.1,0.3,1.6,0.5v0.5H349.2z"/>
			<path class="st1" d="M363.9,158.9v-0.5c0.5-0.2,1-0.4,1.6-0.5l-1-2.5H359l-0.9,2.5c0.5,0.1,1,0.3,1.4,0.5v0.5h-4v-0.5
				c0.4-0.2,0.8-0.4,1.2-0.5l5-12.3h1l4.7,12.3c0.2,0.1,0.4,0.2,0.7,0.3c0.2,0.1,0.4,0.2,0.5,0.3v0.5H363.9z M361.6,147.8
				L361.6,147.8l-2.4,6.8h5L361.6,147.8z"/>
			<path class="st1" d="M377.8,148.6c-0.2-0.3-0.3-0.7-0.4-1c-0.1-0.3-0.2-0.7-0.3-1h-4v5.3h3.2c0.1-0.2,0.2-0.5,0.3-0.7
				c0.1-0.2,0.2-0.4,0.3-0.6h0.5v3.5h-0.5c-0.1-0.2-0.2-0.4-0.4-0.7c-0.1-0.2-0.2-0.5-0.3-0.7h-3.2v5.3c0.3,0.1,0.5,0.1,0.8,0.2
				c0.3,0.1,0.6,0.2,0.8,0.3v0.5h-4.9v-0.5c0.5-0.2,1-0.4,1.6-0.5v-11.1c-0.3-0.1-0.5-0.1-0.8-0.2c-0.3-0.1-0.5-0.2-0.8-0.3v-0.4
				h8.5v2.8H377.8z"/>
			<path class="st1" d="M390.7,148.8h-0.6c-0.2-0.3-0.3-0.7-0.5-1.1c-0.1-0.4-0.2-0.8-0.3-1.1h-3.2v11.4c0.6,0.1,1.1,0.3,1.6,0.5
				v0.5H383v-0.5c0.5-0.2,1-0.4,1.6-0.5v-11.4h-3.2c-0.1,0.4-0.2,0.7-0.3,1.1c-0.1,0.4-0.3,0.8-0.5,1.1h-0.6v-3h10.6V148.8z"/>
			<path class="st1" d="M392.4,158.9v-0.5c0.5-0.2,1-0.4,1.6-0.5v-11.1c-0.3-0.1-0.5-0.1-0.8-0.2c-0.3-0.1-0.5-0.2-0.8-0.3v-0.4h8.6
				v2.8h-0.6c-0.1-0.3-0.3-0.6-0.4-1c-0.1-0.4-0.2-0.7-0.3-1h-4.1v5.2h3.3c0.1-0.2,0.2-0.4,0.3-0.7c0.1-0.2,0.2-0.5,0.4-0.7h0.5v3.5
				h-0.5c-0.1-0.2-0.2-0.4-0.4-0.6c-0.1-0.2-0.2-0.5-0.3-0.7h-3.3v5.6h4.2c0.1-0.3,0.2-0.7,0.3-1c0.1-0.4,0.3-0.7,0.4-1h0.6v2.9
				H392.4z"/>
			<path class="st1" d="M416.8,146.2c-0.2,0.1-0.4,0.3-0.6,0.4c-0.2,0.1-0.4,0.2-0.7,0.3v12.1h-1l-8.3-11.7l0.4,10.4
				c0.3,0.1,0.5,0.2,0.8,0.3c0.3,0.1,0.5,0.2,0.7,0.4v0.5h-4.3v-0.5c0.2-0.1,0.5-0.3,0.7-0.4c0.3-0.1,0.5-0.2,0.8-0.3l0.1-11
				c-0.3-0.1-0.6-0.1-0.8-0.2c-0.3-0.1-0.5-0.2-0.8-0.3v-0.4h3.4l7.5,10.5l-0.3-9.4c-0.2-0.1-0.5-0.2-0.8-0.3
				c-0.3-0.1-0.5-0.3-0.7-0.4v-0.5h4V146.2z"/>
		</g>
	</g>
	<path class="st2" d="M253.9,192.4l-2.9-24.1c1.1-0.3,2.3-0.9,3.2-1.4v-1h-7l-9,23.3l-9.2-23.3h0L174.6,37.9L39.1,95.4l42.2,99.3
		h82.1l62-26.3l-3,24.1c-0.7,0.3-1.6,0.7-2.3,1.2v1h8.3v-1c-0.9-0.5-1.8-0.9-3.1-1.2l1.6-22.4h0l9.6,24.6h1.7l9.5-24.9h0l2.5,22.6
		c-1.2,0.3-2.3,0.8-3.2,1.4v1h9.3v-1C255.7,193.2,254.8,192.7,253.9,192.4z"/>
	<g>
		<path class="st2" d="M282,173.8l-0.1,11.6c0,6.3-3.8,9.7-10.1,9.7c-6.8,0-9.6-3.6-9.6-8.9v-12.4c-0.9-0.3-1.7-0.7-2.4-1.2v-1h8.8
			v1c-0.9,0.5-1.9,0.9-3,1.2v11.2c0,5,1.8,7.9,7.4,7.9c4.3,0,6.8-2.3,6.7-6.9l-0.2-12.2c-1.1-0.2-2.2-0.7-3-1.2v-1h8v1
			C283.8,173.1,282.9,173.6,282,173.8z M268.4,168.5c-1.1,0-2-0.9-2-2c0-1.1,0.9-2,2-2c1.1,0,2,0.9,2,2
			C270.4,167.6,269.4,168.5,268.4,168.5z M276.3,168.5c-1.1,0-2-0.9-2-2c0-1.1,0.9-2,2-2s2,0.9,2,2
			C278.3,167.6,277.4,168.5,276.3,168.5z"/>
		<path class="st2" d="M310.5,173.9v21.1h-2l-14.9-19.6l0.7,17.1c1,0.3,2.1,0.7,3.2,1.2v1h-8.8v-1c1.1-0.6,2-0.9,2.9-1.2l0.2-18.7
			c-1.1-0.3-2.1-0.7-3.1-1.2v-1h6.5l13.5,17.8l-0.6-15.6c-1-0.3-2-0.7-3-1.2v-1h7.8v1C312.2,173.1,311.4,173.6,310.5,173.9z"/>
		<path class="st2" d="M329.2,195c-7.8,0-11.9-3.9-11.9-11.1c0-8.3,5-12.6,12.6-12.6c2.6,0,4.7,0.3,6.6,0.8v6.2h-1.2
			c-0.6-1.4-1-2.7-1.3-4c-1.2-0.6-3-1.1-4.8-1.1c-5.2,0-8.1,3.6-8.1,10c0,6,3.2,9.2,9.5,9.2c1.9,0,4.3-0.4,6.1-1.3l0.6,1.5
			C335.1,194,332.4,195,329.2,195z"/>
		<path class="st2" d="M358.6,194.7v-1c0.9-0.6,1.9-0.9,3-1.2v-8.9h-13.4v8.9c1.1,0.3,2.1,0.6,2.9,1.2v1h-9.6v-1
			c1.1-0.6,2.1-0.9,3.2-1.2v-18.7c-1.1-0.3-2.2-0.7-3.2-1.2v-1h9.6v1c-0.8,0.5-1.9,0.9-2.9,1.2v8h13.4v-8c-1-0.3-2.2-0.7-3-1.2v-1
			h9.6v1c-1,0.5-2.1,0.9-3.2,1.2v18.7c1.1,0.3,2.1,0.6,3.2,1.2v1H358.6z"/>
		<path class="st2" d="M372.8,194.7v-1c1-0.5,2.1-0.9,3.2-1.2v-18.7c-1.1-0.3-2.3-0.7-3.2-1.2v-1h16.9v5h-1.2
			c-0.6-1-1.1-2.3-1.3-3.4h-7.7v8.7h6.2c0.3-0.8,0.8-1.7,1.2-2.3h1.1v6.2h-1.1c-0.4-0.6-0.9-1.5-1.2-2.3h-6.2v9.4h7.8
			c0.2-1.1,0.8-2.4,1.3-3.5h1.2v5.2H372.8z"/>
		<path class="st2" d="M416.8,173.9v21.1h-2l-14.9-19.6l0.7,17.1c1,0.3,2.1,0.7,3.2,1.2v1H395v-1c1.1-0.6,2-0.9,2.9-1.2l0.2-18.7
			c-1.1-0.3-2.1-0.7-3.1-1.2v-1h6.5l13.5,17.8l-0.6-15.6c-1-0.3-2-0.7-3-1.2v-1h7.8v1C418.5,173.1,417.7,173.6,416.8,173.9z"/>
	</g>
</g>
</svg>
