<svg xmlns="http://www.w3.org/2000/svg" width="1353.84" height="390.087" viewBox="0 0 1353.84 390.087"><path d="M80.71 76.737c0-34.033-40.892-29.266-40.892-41.623 0-5.202 3.657-8.667 12.7-8.667 6.454 0 13.774 1.082 19.585 2.813l.86-27.527C66.94.65 59.406 0 53.807 0 21.092 0 4.304 15.605 4.304 38.585c0 37.286 40.25 28.614 40.25 42.272 0 5.634-4.954 9.32-12.915 9.32-8.18 0-16.15-1.298-22.18-3.687l-1.07 28.83c6.24 1.3 13.77 2.387 20.45 2.387 33.79 0 51.87-16.908 51.87-40.97m95.35-45.522V2.385h-87.6v28.83h27.34v83.893h33.14V31.215h27.12zm124.19 40.1V2.385h-32.71V66.33c0 15.175-6.03 23.195-20.02 23.195-14.21 0-20.67-6.72-20.67-22.763V2.384H193.7V74.79c0 25.36 16.143 42.484 51.87 42.484 38.1 0 54.67-20.377 54.67-45.958m136.9-14.956c0-39.45-24.534-54.622-60.478-54.622-14.637 0-37.02.435-47.356.65V114.89c11.195.65 24.537 1.084 40.897 1.084 37.452 0 66.937-17.776 66.937-59.613m-35.296 1.3c0 19.73-12.06 30.14-28.628 30.14-4.736 0-8.825-.43-10.762-.65V29.48c3.228-.22 7.534-.434 11.41-.434 18.508 0 27.98 9.97 27.98 28.614m89.32-55.276H458.02v112.724h33.145V2.384zm103.098 112.723V88.442H554.66v-17.99h37.454V45.086H554.66V28.614h39.608V2.384h-72.75v112.724h72.75zm140.545 0V2.384h-32.07l.22 44.873c0 8.454 0 16.04.43 22.108h-.217c-3.227-7.368-6.67-14.306-10.328-20.81L665.94 2.385h-44.555v112.723h31.857v-52.03c0-6.717-.22-10.837-.435-15.39h.215c2.372 5.852 5.813 13.875 9.255 19.51l27.766 47.91h44.77zm-691.12 23.57H10.544V251.4H43.69V138.678zm143.775 112.73V138.68h-32.07l.215 44.876c0 8.452 0 16.042.43 22.112h-.214c-3.23-7.37-6.673-14.31-10.33-20.81L118.59 138.68H74.038v112.73h31.854v-52.032c0-6.716-.215-10.836-.43-15.388h.215c2.367 5.85 5.81 13.876 9.255 19.505l27.76 47.916h44.776zm101.59-86.496v-26.23H218.03v112.73h33.143v-42.05h36.162v-25.58h-36.162v-18.86h37.884zm135.17 28.41c0-39.67-26.475-56.8-57.895-56.8-32.5 0-61.99 23.41-61.99 59.83 0 34.91 20.876 57.24 57.685 57.24 32.93 0 62.202-23.2 62.202-60.26m-35.52 1.73c0 20.38-11.834 28.83-24.966 28.83-15.28 0-23.89-11.49-23.89-29.26 0-18.86 11.41-28.612 24.32-28.612 14.424 0 24.54 9.97 24.54 29.045M541.1 251.41l-20.88-34.69c-3.01-5.206-6.024-9.75-7.744-12.794 14.204-5.2 23.03-15.82 23.03-31.867 0-23.41-17.65-34.25-46.062-34.25-14.637 0-34.657.21-44.555.86V251.4h33.14v-41.19h1.07l22.17 41.194h39.82zm-40.89-76.31c0 8.02-5.81 13.44-14.42 13.44-2.585 0-5.382 0-7.75-.217v-24.71c2.156-.218 4.738-.218 6.672-.218 9.472 0 15.498 4.55 15.498 11.704m213.52 76.31l-17.442-112.74H654.1l-15.713 50.08c-2.147 6.5-3.66 13-5.38 21.03h-.214c-1.292-8.03-3.012-15.4-4.736-21.03l-15.063-50.08H571.02L553.373 251.4h33.143l5.813-46.61c1.07-8.458 1.93-16.258 2.58-24.712h.21c1.72 8.89 4.3 19.29 6.46 27.315l12.69 44.01h34.01l14.42-47.918c2.15-7.37 4.09-15.82 5.81-23.84h.21c.64 6.72 1.72 15.172 2.79 22.975l6.89 48.78h35.303zm130.864 0l-40.248-112.74h-39.822L724.276 251.4h33.147l5.812-17.13h38.958l5.812 17.13h36.59zm-49.934-40.98h-24.11l7.75-21.9c1.51-4.56 3.015-9.76 4.09-14.52h.22c1.294 4.98 3.23 10.83 4.733 15.38l7.323 21.03zm134.1-42.93v-28.83h-87.61v28.83h27.336v83.9h33.147v-83.9h27.124zm51.653-28.84h-33.15V251.4h33.148V138.678zm140.337 54.64c0-39.67-26.48-56.8-57.907-56.8-32.504 0-61.994 23.41-61.994 59.823 0 34.904 20.88 57.232 57.68 57.232 32.93 0 62.21-23.2 62.21-60.26m-35.52 1.73c0 20.372-11.84 28.83-24.98 28.83-15.28 0-23.89-11.49-23.89-29.267 0-18.86 11.405-28.614 24.322-28.614 14.42 0 24.54 9.972 24.54 29.05m169.61 56.37V138.68h-32.08l.213 44.875c0 8.452 0 16.042.435 22.112h-.22c-3.23-7.37-6.67-14.31-10.326-20.81l-26.91-46.178h-44.55v112.73h31.85v-52.04c0-6.72-.21-10.84-.426-15.39h.215c2.363 5.85 5.813 13.87 9.25 19.5l27.763 47.91h44.776zm99-38.378c0-34.04-40.896-29.27-40.896-41.63 0-5.2 3.66-8.67 12.7-8.67 6.454 0 13.777 1.08 19.58 2.82l.87-27.53c-6.03-1.09-13.56-1.74-19.155-1.74-32.72 0-49.51 15.61-49.51 38.588 0 37.28 40.25 28.61 40.25 42.27 0 5.63-4.95 9.32-12.916 9.32-8.176 0-16.14-1.3-22.17-3.69l-1.08 28.83c6.24 1.305 13.772 2.386 20.443 2.386 33.8 0 51.873-16.907 51.873-40.97M87.6 303.81v-28.83H0v28.833h27.333V387.7h33.145v-83.887h27.12zm118.162 83.89l-40.248-112.72h-39.818L85.446 387.7h33.148l5.81-17.12h38.96l5.81 17.12h36.59zm-49.933-40.97h-24.11l7.75-21.894c1.5-4.555 3.01-9.76 4.08-14.523h.21c1.29 4.99 3.23 10.838 4.73 15.388l7.32 21.03zm161 34.036v-54.194h-33.15v32.3c-3.02.653-6.68 1.3-10.33 1.3-14.86 0-24.97-10.408-24.97-28.828 0-18.86 11.62-30.35 29.7-30.35 10.54 0 20.44 2.168 29.91 6.07l6.67-28.395c-12.7-3.91-25.61-5.86-38.1-5.86-40.25 0-63.71 27.09-63.71 60.92 0 37.71 25.4 56.35 58.54 56.35 16.143 0 31.21-3.48 45.415-9.32" fill="#333"/></svg>