<?xml version="1.0" encoding="UTF-8" standalone="no"?><!DOCTYPE svg PUBLIC "-//W3C//DTD SVG 1.1//EN" "http://www.w3.org/Graphics/SVG/1.1/DTD/svg11.dtd"><svg width="100%" height="100%" viewBox="0 0 573 166" version="1.1" xmlns="http://www.w3.org/2000/svg" xmlns:xlink="http://www.w3.org/1999/xlink" xml:space="preserve" xmlns:serif="http://www.serif.com/" style="fill-rule:evenodd;clip-rule:evenodd;stroke-linejoin:round;stroke-miterlimit:1.41421;"><rect id="_2020-links" serif:id="2020 links" x="0.092" y="0.001" width="572.2" height="165.37" style="fill:none;"/><clipPath id="_clip1"><rect x="0.092" y="0.001" width="572.2" height="165.37"/></clipPath><g clip-path="url(#_clip1)"><g id="Ebene-1" serif:id="Ebene 1"><path d="M310.661,48.65l0,-47.642l-13.554,0l0.091,18.965c0,3.573 0,6.78 0.182,9.344l-0.091,0c-1.365,-3.113 -2.819,-6.045 -4.366,-8.794l-11.372,-19.515l-18.83,0l0,47.642l13.464,0l0,-21.988c0,-2.841 -0.093,-4.581 -0.184,-6.506l0.091,0c1.002,2.473 2.457,5.864 3.912,8.246l11.735,20.248l18.922,0Zm-59.402,0l0,-11.27l-16.739,0l0,-7.604l15.829,0l0,-10.72l-15.829,0l0,-6.962l16.739,0l0,-11.086l-30.748,0l0,47.642l30.748,0Zm-43.574,-47.642l-14.009,0l0,47.642l14.009,0l0,-47.642Zm-37.752,23.363c0,8.338 -5.095,12.735 -12.099,12.735c-2.001,0 -3.73,-0.184 -4.548,-0.274l0,-24.371c1.363,-0.092 3.183,-0.184 4.821,-0.184c7.824,0 11.826,4.215 11.826,12.094m14.919,-0.55c0,-16.674 -10.371,-23.088 -25.562,-23.088c-6.186,0 -15.647,0.185 -20.014,0.275l0,47.55c4.73,0.276 10.371,0.458 17.284,0.458c15.829,0 28.292,-7.512 28.292,-25.195m-57.857,6.322l0,-29.135l-13.826,0l0,27.027c0,6.414 -2.548,9.804 -8.46,9.804c-6.004,0 -8.734,-2.84 -8.734,-9.62l0,-27.211l-14.009,0l0,30.601c0,10.72 6.823,17.956 21.924,17.956c16.101,0 23.105,-8.61 23.105,-19.422m-52.488,-16.95l0,-12.185l-37.025,0l0,12.185l11.553,0l0,35.457l14.009,0l0,-35.457l11.463,0Zm-40.301,19.24c0,-14.384 -17.284,-12.368 -17.284,-17.591c0,-2.199 1.546,-3.664 5.367,-3.664c2.728,0 5.821,0.458 8.277,1.191l0.364,-11.636c-2.546,-0.458 -5.73,-0.732 -8.096,-0.732c-13.827,0 -20.923,6.595 -20.923,16.307c0,15.759 17.012,12.094 17.012,17.866c0,2.382 -2.093,3.94 -5.458,3.94c-3.457,0 -6.822,-0.549 -9.371,-1.558l-0.454,12.186c2.638,0.55 5.822,1.008 8.642,1.008c14.282,0 21.924,-7.147 21.924,-17.317" style="fill:#3a393b;fill-rule:nonzero;"/><path d="M572.292,90.04c0,-14.384 -17.285,-12.368 -17.285,-17.592c0,-2.199 1.547,-3.665 5.368,-3.665c2.728,0 5.822,0.459 8.278,1.193l0.363,-11.636c-2.546,-0.459 -5.731,-0.734 -8.096,-0.734c-13.827,0 -20.922,6.597 -20.922,16.309c0,15.76 17.01,12.095 17.01,17.866c0,2.382 -2.092,3.941 -5.458,3.941c-3.456,0 -6.823,-0.552 -9.37,-1.559l-0.454,12.187c2.638,0.548 5.821,1.006 8.642,1.006c14.282,0 21.924,-7.146 21.924,-17.316m-41.847,16.218l0,-47.645l-13.555,0l0.091,18.967c0,3.572 0,6.779 0.182,9.346l-0.091,0c-1.364,-3.115 -2.82,-6.049 -4.366,-8.797l-11.372,-19.516l-18.83,0l0,47.645l13.463,0l0,-21.989c0,-2.84 -0.09,-4.582 -0.181,-6.505l0.091,0c1,2.473 2.456,5.863 3.911,8.246l11.734,20.248l18.923,0Zm-71.684,-23.822c0,8.611 -5.004,12.185 -10.552,12.185c-6.46,0 -10.098,-4.855 -10.098,-12.369c0,-7.971 4.821,-12.094 10.28,-12.094c6.095,0 10.37,4.214 10.37,12.278m15.01,-0.733c0,-16.767 -11.189,-24.005 -24.471,-24.005c-13.737,0 -26.199,9.896 -26.199,25.287c0,14.752 8.824,24.189 24.379,24.189c13.919,0 26.291,-9.805 26.291,-25.471m-59.311,-23.09l-14.009,0l0,47.643l14.009,0l0,-47.643Zm-21.832,12.187l0,-12.187l-37.025,0l0,12.187l11.553,0l0,35.458l14.009,0l0,-35.458l11.463,0Zm-56.676,18.14l-10.189,0l3.274,-9.253c0.638,-1.923 1.275,-4.123 1.729,-6.137l0.091,0c0.547,2.106 1.365,4.579 2.001,6.504l3.094,8.886Zm21.105,17.318l-17.011,-47.645l-16.829,0l-17.013,47.645l14.01,0l2.456,-7.239l16.465,0l2.458,7.239l15.464,0Zm-55.311,0l-7.369,-47.645l-17.83,0l-6.641,21.166c-0.909,2.748 -1.547,5.496 -2.274,8.886l-0.091,0c-0.546,-3.39 -1.274,-6.504 -2.001,-8.886l-6.368,-21.166l-17.74,0l-7.458,47.645l14.008,0l2.457,-19.699c0.454,-3.574 0.818,-6.872 1.091,-10.446l0.091,0c0.729,3.757 1.819,8.156 2.73,11.545l5.366,18.6l14.374,0l6.094,-20.248c0.911,-3.116 1.729,-6.689 2.458,-10.079l0.09,0c0.274,2.839 0.728,6.414 1.182,9.713l2.913,20.614l14.918,0Zm-90.243,-32.252c0,3.39 -2.456,5.681 -6.095,5.681c-1.091,0 -2.274,0 -3.274,-0.091l0,-10.445c0.909,-0.09 2.001,-0.09 2.819,-0.09c4.003,0 6.55,1.922 6.55,4.945m17.285,32.252l-8.825,-14.659c-1.273,-2.201 -2.547,-4.123 -3.274,-5.407c6.004,-2.199 9.734,-6.688 9.734,-13.468c0,-9.895 -7.46,-14.477 -19.468,-14.477c-6.186,0 -14.646,0.093 -18.831,0.366l0,47.645l14.01,0l0,-17.408l0.454,0l9.37,17.408l16.83,0Zm-64.407,-23.822c0,8.611 -5.003,12.185 -10.552,12.185c-6.459,0 -10.098,-4.855 -10.098,-12.369c0,-7.971 4.822,-12.094 10.279,-12.094c6.095,0 10.371,4.214 10.371,12.278m15.011,-0.733c0,-16.767 -11.19,-24.005 -24.471,-24.005c-13.737,0 -26.2,9.896 -26.2,25.287c0,14.752 8.824,24.189 24.38,24.189c13.919,0 26.291,-9.805 26.291,-25.471m-57.13,-12.003l0,-11.087l-30.02,0l0,47.645l14.01,0l0,-17.776l15.282,0l0,-10.81l-15.282,0l0,-7.972l16.01,0Zm-42.937,36.558l0,-47.645l-13.555,0l0.091,18.967c0,3.572 0,6.779 0.182,9.346l-0.091,0c-1.365,-3.115 -2.82,-6.049 -4.367,-8.797l-11.371,-19.516l-18.831,0l0,47.645l13.464,0l0,-21.989c0,-2.84 -0.091,-4.582 -0.182,-6.505l0.091,0c1,2.473 2.456,5.863 3.912,8.246l11.734,20.248l18.923,0Zm-60.767,-47.645l-14.01,0l0,47.643l14.01,0l0,-47.643Z" style="fill:#3a393b;fill-rule:nonzero;"/><path d="M134.001,160.931l0,-22.905l-14.01,0l0,13.651c-1.274,0.275 -2.82,0.55 -4.366,0.55c-6.278,0 -10.553,-4.399 -10.553,-12.186c0,-7.97 4.913,-12.828 12.554,-12.828c4.458,0 8.642,0.917 12.645,2.568l2.82,-12.003c-5.367,-1.65 -10.826,-2.474 -16.102,-2.474c-17.011,0 -26.927,11.451 -26.927,25.744c0,15.943 10.734,23.822 24.744,23.822c6.822,0 13.191,-1.465 19.195,-3.939m-68.048,-14.385l-10.188,0l3.275,-9.254c0.636,-1.924 1.273,-4.124 1.728,-6.138l0.09,0c0.547,2.107 1.365,4.582 2.002,6.505l3.093,8.887Zm21.105,17.316l-17.011,-47.642l-16.829,0l-17.012,47.642l14.009,0l2.456,-7.238l16.467,0l2.456,7.238l15.464,0Zm-49.942,-35.456l0,-12.186l-37.024,0l0,12.186l11.553,0l0,35.456l14.008,0l0,-35.456l11.463,0Z" style="fill:#3a393b;fill-rule:nonzero;"/><path d="M186.553,164.66l0,-12.652c-4.123,0 -6.966,0 -12.936,0.355l-0.071,-0.071l1.279,-1.35c7.605,-7.961 10.804,-15.282 10.804,-20.97c0,-7.675 -4.833,-14.143 -15.637,-14.143c-6.113,0 -10.662,1.35 -13.79,2.843l1.991,11.799c2.061,-1.35 5.117,-2.488 8.103,-2.488c3.056,0 4.762,1.777 4.762,4.406c0,2.205 -1.635,7.109 -10.449,16.278l-4.691,4.905l0,11.088l30.635,0Zm43.003,-24.522c0,-12.439 -3.981,-24.096 -19.405,-24.096c-10.306,0 -20.186,8.316 -20.186,25.091c0,18.765 9.453,24.238 19.12,24.238c10.733,0 20.471,-8.601 20.471,-25.233m-13.861,0.142c0,10.52 -3.056,14.074 -6.112,14.074c-4.336,0 -5.758,-4.265 -5.758,-13.932c0,-10.093 2.488,-13.576 6.397,-13.576c3.839,0 5.473,3.696 5.473,13.434m48.191,24.38l0,-12.652c-4.123,0 -6.966,0 -12.937,0.355l-0.071,-0.071l1.28,-1.35c7.605,-7.961 10.804,-15.282 10.804,-20.97c0,-7.675 -4.834,-14.143 -15.638,-14.143c-6.113,0 -10.662,1.35 -13.789,2.843l1.99,11.799c2.061,-1.35 5.118,-2.488 8.103,-2.488c3.057,0 4.762,1.777 4.762,4.406c0,2.205 -1.634,7.109 -10.448,16.278l-4.691,4.905l0,11.088l30.635,0Zm43.002,-24.522c0,-12.439 -3.98,-24.096 -19.404,-24.096c-10.307,0 -20.187,8.316 -20.187,25.091c0,18.765 9.454,24.238 19.121,24.238c10.733,0 20.47,-8.601 20.47,-25.233m-13.86,0.142c0,10.52 -3.056,14.074 -6.113,14.074c-4.336,0 -5.757,-4.265 -5.757,-13.932c0,-10.093 2.488,-13.576 6.397,-13.576c3.838,0 5.473,3.696 5.473,13.434" style="fill:#3a393b;fill-rule:nonzero;"/></g></g></svg>