<svg id="Ebene_1" data-name="Ebene 1" xmlns="http://www.w3.org/2000/svg" viewBox="0 0 258 398"><defs><style>.cls-1{fill:#213a8f;}.cls-13,.cls-16,.cls-2,.cls-3{fill:none;}.cls-2,.cls-3{stroke:#eee;stroke-width:10px;}.cls-3{stroke-dasharray:5;}.cls-4{fill:#009ddf;}.cls-13,.cls-4{stroke:#fff;}.cls-5{fill:#e10015;}.cls-12,.cls-6,.cls-7,.cls-8,.cls-9{font-size:8px;}.cls-17,.cls-6{font-family:ArialMT, Arial;}.cls-7{fill:#c00;}.cls-10,.cls-11,.cls-12,.cls-14,.cls-7,.cls-8,.cls-9{font-family:Arial-BoldMT, Arial;font-weight:700;}.cls-12,.cls-9{letter-spacing:-0.03em;}.cls-10{font-size:14px;letter-spacing:-0.03em;}.cls-10,.cls-11,.cls-12,.cls-14{fill:#fff;}.cls-11{font-size:12px;letter-spacing:-0.02em;}.cls-13,.cls-16{stroke-miterlimit:10;}.cls-14{font-size:5px;letter-spacing:-0.07em;}.cls-15{fill:#ccc;}.cls-16{stroke:#000;}.cls-17{font-size:9px;}.cls-18{letter-spacing:-0.07em;}</style></defs><title>umgebungsplan</title><rect class="cls-1" x="179.95" y="194.55" width="50.05" height="21.73" transform="translate(163.6 -81.81) rotate(36.74)"/><rect class="cls-1" x="166.96" y="208" width="27.32" height="21.73" transform="translate(166.8 -64.57) rotate(36.74)"/><rect class="cls-1" x="142.81" y="167.41" width="22.17" height="28.72" transform="translate(139.31 -55.95) rotate(36.74)"/><rect class="cls-1" x="123.33" y="260.19" width="16.46" height="34.94" transform="translate(192.23 -23.54) rotate(36.74)"/><path class="cls-2" d="M77.6,319.1l192-258.5M92.5,62l110.3,81.9M-25.7,98,199.6,265.3m-6.8-94.8,87.9,65.3"/><path class="cls-2" d="M-20.2,213.8l169-227.5"/><path class="cls-3" d="M120.6,24.3,136.4,3"/><path class="cls-2" d="M-17.3,307.7,201.1,332m-3.5,62v14m0-146.8V380.3"/><path class="cls-4" d="M190.5,324.9h14.2v14.2H190.5Z"/><path class="cls-4" d="M59.2,301.3H73.4v14.2H59.2Z"/><path class="cls-5" d="M155,228.5h11v10.3H155Z"/><path class="cls-5" d="M127.4,211.2h11v10.3h-11V211.2Z"/><text class="cls-6" transform="matrix(0.6, -0.8, 0.8, 0.6, 65.23, 103.06)">Schwere-Reiter-Straße</text><text class="cls-7" transform="matrix(0.6, -0.8, 0.8, 0.6, 197.06, 162.64)">Lothstraße</text><text class="cls-6" transform="matrix(0.8, 0.59, -0.59, 0.8, 99.22, 70.22)">Infanteriestraße</text><text class="cls-6" transform="matrix(0.81, 0.59, -0.59, 0.81, 58.97, 164.62)">Dachauer Straße</text><text class="cls-6" transform="matrix(0.81, 0.59, -0.59, 0.81, 199.31, 178.95)">Heßstraße</text><text class="cls-6" transform="matrix(0.81, 0.59, -0.59, 0.81, 166.97, 244.62)">Dachauer</text><text class="cls-6" transform="translate(195.05 266.7) rotate(90)">Straße</text><text class="cls-6" transform="translate(96.92 322.87) rotate(6.5)">Nymphenburger Straße</text><text class="cls-7" transform="matrix(0.6, -0.8, 0.8, 0.6, 136.39, 244.31)">Lothstraße</text><text class="cls-8" transform="translate(48.92 141.78)">Leonrodplatz</text><text class="cls-8" transform="translate(10.08 295.94)">Maillingerstraße</text><text class="cls-8" transform="translate(170.67 390.28)">Hauptbahnhof</text><text class="cls-8" transform="translate(209 335.28)">Stiglmeier-<tspan x="0" y="9.6">platz</tspan></text><text class="cls-9" transform="translate(42.67 305.28)">1, 7</text><text class="cls-9" transform="translate(209 325.61)">1, 7</text><text class="cls-9" transform="translate(98.75 229.28)">20, 21, 22</text><text class="cls-9" transform="translate(142.25 250.03)">20, 21,<tspan x="0" y="9.6">22</tspan></text><text class="cls-10" transform="translate(146.75 181.28)">17</text><text class="cls-10" transform="translate(187 202.28)">64</text><text class="cls-11" transform="translate(169.25 218.78)">98b</text><text class="cls-10" transform="translate(128.63 276.28)">34</text><text class="cls-12" transform="translate(212.09 216.12)">R</text><circle class="cls-13" cx="215" cy="213.53" r="5.67"/><text class="cls-12" transform="translate(180.69 228.34)">E</text><circle class="cls-13" cx="183.5" cy="225.28" r="5.67"/><text class="cls-12" transform="translate(150.34 192.21)">X</text><circle class="cls-13" cx="153" cy="189.19" r="5.67"/><text class="cls-12" transform="translate(122.94 288.31)">G</text><circle class="cls-13" cx="126.13" cy="285.34" r="5.67"/><text class="cls-11" transform="translate(61.93 312.78)">U</text><text class="cls-11" transform="translate(193.34 336.36)">U</text><text class="cls-14" transform="translate(127.91 218.21) scale(0.75 1)">TRAM</text><text class="cls-14" transform="translate(155.54 235.21) scale(0.75 1)">TRAM</text><path class="cls-15" d="M183,157.9h-8.7L195.9,192l-34.3-34.1H116.7V109H183"/><path class="cls-16" d="M120.7,134.1h57.7"/><text class="cls-17" transform="translate(121.73 143.78)">Lothstraße 64<tspan x="4.75" y="9">Gebäude R</tspan></text><text class="cls-8" transform="translate(131.63 117.38)">STUDIEN<tspan x="-13.03" y="7">INFORM</tspan><tspan class="cls-18" x="18.52" y="7">A</tspan><tspan x="23.7" y="7">TIONS</tspan><tspan class="cls-18" x="9.41" y="14">T</tspan><tspan x="13.7" y="14">AG</tspan></text></svg>