<?xml version="1.0" standalone="no"?>
<!DOCTYPE svg PUBLIC "-//W3C//DTD SVG 20010904//EN"
 "http://www.w3.org/TR/2001/REC-SVG-20010904/DTD/svg10.dtd">
<svg version="1.0" xmlns="http://www.w3.org/2000/svg"
 width="1500.000000pt" height="1500.000000pt" viewBox="0 0 1500.000000 1500.000000"
 preserveAspectRatio="xMidYMid meet">
<metadata>
Created by potrace 1.11, written by Peter Selinger 2001-2013
</metadata>
<g transform="translate(0.000000,1500.000000) scale(0.100000,-0.100000)"
fill="orange" stroke="none">
<path d="M520 12466 l0 -801 1448 0 1447 0 1 -3995 1 -3995 989 0 989 0 2
3980 c1 2189 2 3987 2 3995 1 13 169 15 1459 14 801 0 1462 1 1467 3 7 2 10
272 9 796 -1 435 -2 795 -3 798 0 4 -1758 7 -3906 7 l-3905 0 0 -802z"/>
<path d="M10399 11586 c-2 -2 -51 -7 -109 -10 -58 -4 -118 -9 -135 -11 -16 -2
-53 -6 -81 -10 -29 -3 -60 -7 -70 -9 -11 -2 -41 -7 -69 -10 -98 -13 -347 -66
-469 -101 -405 -114 -723 -259 -1056 -480 -682 -455 -1170 -1130 -1471 -2037
-32 -97 -61 -187 -63 -200 -3 -13 -19 -73 -35 -135 -16 -62 -32 -129 -35 -149
-4 -20 -8 -39 -10 -43 -2 -3 -7 -24 -10 -46 -4 -22 -8 -47 -11 -55 -12 -41
-63 -361 -71 -445 -3 -38 -8 -78 -9 -87 -2 -9 -7 -52 -10 -95 -4 -43 -9 -91
-11 -108 -27 -222 -26 -1605 1 -1795 2 -14 6 -59 10 -100 4 -41 8 -86 10 -100
2 -14 6 -50 10 -80 19 -176 80 -500 131 -699 37 -144 89 -323 104 -356 5 -11
20 -51 33 -90 29 -80 99 -259 129 -325 41 -90 171 -346 189 -372 11 -14 19
-29 19 -33 0 -10 137 -224 203 -315 136 -189 272 -346 441 -509 115 -111 113
-109 171 -156 28 -21 52 -42 55 -45 12 -14 204 -153 285 -206 406 -268 939
-475 1450 -564 33 -5 69 -12 80 -14 11 -2 45 -7 75 -11 30 -4 62 -9 70 -10 8
-2 44 -6 80 -10 36 -4 76 -8 90 -10 247 -30 923 -25 1220 9 25 3 77 8 115 12
39 3 77 8 86 9 9 2 40 6 70 10 30 3 65 8 79 11 64 12 77 14 115 19 177 26 663
148 835 210 25 9 52 18 60 20 44 10 288 107 410 163 143 65 329 162 400 207
295 187 427 291 653 516 l127 127 -2 1919 -3 1918 -1886 1 -1886 2 0 -724 c0
-462 3 -727 10 -731 5 -3 409 -5 898 -5 l889 0 1 -36 c0 -21 1 -392 1 -826 l1
-790 -49 -43 c-114 -100 -291 -203 -451 -262 -73 -27 -260 -81 -328 -95 -100
-20 -197 -37 -240 -42 -27 -3 -61 -7 -75 -10 -137 -24 -668 -24 -796 0 -11 2
-44 7 -74 11 -82 10 -290 62 -388 97 -519 182 -914 580 -1150 1154 -48 117
-116 322 -138 414 -9 36 -17 72 -19 80 -12 51 -45 212 -50 245 -3 22 -12 78
-20 125 -8 47 -16 112 -20 145 -3 33 -8 78 -10 100 -21 175 -28 382 -28 915
-1 477 6 825 17 890 3 14 7 66 11 115 4 50 8 99 11 110 2 11 6 40 9 65 7 61
14 110 19 140 3 14 8 43 11 65 3 23 8 52 10 65 3 14 8 39 11 55 2 17 22 102
44 190 85 350 211 649 378 895 36 52 67 97 71 100 3 3 24 27 46 55 254 316
647 532 1085 594 195 28 534 31 680 7 14 -3 45 -7 70 -10 302 -39 613 -170
825 -349 296 -250 470 -594 579 -1147 l13 -65 962 0 962 0 -6 55 c-10 86 -28
201 -51 325 -53 289 -169 664 -282 915 -29 65 -96 201 -112 230 -200 348 -361
553 -616 784 -316 287 -704 505 -1169 658 -174 57 -502 135 -640 151 -22 3
-71 10 -110 16 -82 12 -141 19 -245 26 -41 3 -88 8 -105 11 -36 6 -740 16
-746 10z"/>
</g>
</svg>
